<?xml version="1.0" encoding="UTF-8"?>
<svg id="Layer_2" data-name="Layer 2" xmlns="http://www.w3.org/2000/svg" viewBox="0 0 46 46">
  <defs>
    <style>
      .cls-1 {
        fill: none;
        stroke: #b5d335;
        stroke-miterlimit: 10;
      }

      .cls-2 {
        fill: #b5d335;
        stroke-width: 0px;
      }
    </style>
  </defs>
  <g id="Icon_About" data-name="Icon About">
    <g>
      <circle class="cls-1" cx="23" cy="23" r="21.06"/>
      <circle class="cls-1" cx="23" cy="23" r="22.5"/>
      <g>
        <path class="cls-2" d="M24.4,23.44c-.07,4.33-1.7,8.49-4.97,11.96-.41.43-.9.61-1.46.42-.55-.18-.87-.6-.95-1.19-.07-.49.13-.9.46-1.24,1.18-1.23,2.13-2.63,2.83-4.2,1.09-2.43,1.5-4.98,1.25-7.65-.32-3.51-1.7-6.51-4.08-9.03-.7-.75-.6-1.82.21-2.31.57-.34,1.22-.24,1.71.27,1.73,1.8,3.04,3.88,3.9,6.25.73,2,1.08,4.08,1.09,6.72Z"/>
        <path class="cls-2" d="M19.59,22.5c-.06,3.92-1.23,6.9-3.57,9.39-.57.61-1.42.65-1.99.1-.57-.55-.59-1.43,0-2.05,1.33-1.42,2.24-3.08,2.6-5.02.6-3.28-.19-6.17-2.33-8.67-.1-.12-.21-.23-.31-.34-.53-.61-.5-1.48.06-2.01.55-.53,1.39-.51,1.93.06,1.68,1.74,2.81,3.81,3.3,6.22.19.91.25,1.86.31,2.33Z"/>
        <path class="cls-2" d="M26.42,23.05c.04-3.47,1.21-6.46,3.56-8.95.57-.61,1.43-.65,1.99-.09.57.56.58,1.43,0,2.05-1.21,1.29-2.08,2.77-2.48,4.51-.8,3.48-.04,6.57,2.28,9.24.3.35.61.68.62,1.18.02.61-.29,1.13-.82,1.37-.53.24-1.12.13-1.53-.3-1.27-1.31-2.23-2.83-2.85-4.57-.51-1.43-.77-2.91-.77-4.44Z"/>
        <path class="cls-2" d="M31.22,23.05c.04-2.12.75-3.94,2.18-5.46.56-.59,1.41-.62,1.97-.06.55.55.56,1.43.01,2.03-1.88,2.08-1.88,4.91,0,6.99.55.6.54,1.49-.01,2.03-.56.55-1.41.53-1.97-.06-1.44-1.52-2.15-3.36-2.18-5.48Z"/>
        <path class="cls-2" d="M14.78,22.95c-.04,2.12-.75,3.95-2.18,5.47-.56.59-1.42.62-1.97.06-.55-.55-.56-1.43-.01-2.03,1.88-2.08,1.88-4.91,0-7-.55-.61-.54-1.48.01-2.03.56-.55,1.41-.53,1.97.06,1.44,1.52,2.15,3.36,2.18,5.47Z"/>
        <path class="cls-2" d="M25.11,27.97c.43.9.83,1.81,1.3,2.69.56,1.05,1.28,1.97,2.1,2.82.42.43.6.93.41,1.53-.31.99-1.51,1.33-2.24.6-1.15-1.14-2.09-2.45-2.87-3.88-.03-.06-.05-.16-.02-.22.55-1.15.99-2.34,1.31-3.55Z"/>
        <path class="cls-2" d="M25.21,18.03c-.37-.99-.71-2.05-1.15-3.04-.22-.48-.16-.8.09-1.21.72-1.15,1.52-2.23,2.46-3.2.41-.42.89-.57,1.45-.38.55.19.86.61.94,1.2.06.49-.14.89-.47,1.24-1.11,1.15-2.01,2.47-2.69,3.94-.23.5-.43,1.01-.62,1.46Z"/>
      </g>
    </g>
  </g>
</svg>