<?xml version="1.0" encoding="UTF-8"?>
<svg id="Layer_2" data-name="Layer 2" xmlns="http://www.w3.org/2000/svg" viewBox="0 0 46 46">
  <defs>
    <style>
      .cls-1 {
        fill: none;
        stroke: #b5d335;
        stroke-miterlimit: 10;
      }

      .cls-2 {
        fill: #b5d335;
        stroke-width: 0px;
      }
    </style>
  </defs>
  <g id="Icon_Contact" data-name="Icon Contact">
    <g>
      <g>
        <path class="cls-2" d="M35.26,13.62c-.03.1-.05.19-.08.29-.23.7-.88,1.18-1.62,1.18-.71,0-1.43,0-2.14,0-.11,0-.23.04-.32.1-.82.59-1.63,1.18-2.45,1.78-.07.05-.14.1-.22.11-.18.04-.33-.13-.31-.34.05-.43.1-.86.16-1.29.01-.12.03-.23.04-.35-.27-.02-.54-.01-.8-.05-.78-.12-1.4-.83-1.4-1.62,0-1.37,0-2.73,0-4.1,0-.8.58-1.48,1.36-1.64.04,0,.07-.02.11-.03,2.07,0,4.13,0,6.2,0,.03.01.06.03.09.03.65.14,1.08.53,1.3,1.15.03.09.06.19.08.29v4.49ZM28.78,16.17c.08-.05.12-.07.16-.1.39-.28.79-.57,1.18-.86.41-.3.82-.6,1.23-.9.19-.14.39-.1.46.09.04.11.11.12.2.12.48,0,.96,0,1.44,0,.77,0,1.25-.48,1.25-1.25,0-1.26,0-2.52,0-3.78,0-.77-.48-1.25-1.25-1.25-.89,0-1.79,0-2.68,0-.96,0-1.92,0-2.88,0-.67,0-1.18.48-1.19,1.13-.01,1.35,0,2.69,0,4.04,0,.53.37.99.88,1.08.26.05.54.04.8.05.1-.25.22-.33.37-.3.17.04.24.16.22.41-.02.23-.05.45-.08.68-.03.27-.07.54-.1.84Z"/>
        <path class="cls-2" d="M41.1,24.97c-.14.1-.27.24-.43.29-.37.12-.75-.12-.76-.48-.02-.35,0-.69,0-1.04,0-.27.11-.48.39-.57.3-.09.55-.01.73.23.02.02.05.04.08.05v1.51Z"/>
        <path class="cls-2" d="M21.18,24.18c0-2.43,0-4.85,0-7.28,0-.13,0-.28.06-.4.09-.25.3-.37.6-.35.28.01.46.15.54.38.04.12.04.25.04.37,0,4.88,0,9.75,0,14.63,0,.12,0,.25-.04.37-.07.24-.26.37-.54.38-.29.01-.5-.11-.59-.36-.05-.13-.05-.27-.05-.4,0-2.45,0-4.9,0-7.34Z"/>
        <path class="cls-2" d="M23.59,24.21c0-2.41,0-4.81,0-7.22,0-.09,0-.19,0-.28.03-.36.26-.57.61-.57.36,0,.6.23.62.6,0,.06,0,.13,0,.19,0,4.85,0,9.71,0,14.56,0,.14,0,.28-.04.4-.08.26-.3.4-.61.39-.29-.01-.48-.16-.55-.41-.03-.13-.04-.27-.04-.41,0-2.42,0-4.83,0-7.25Z"/>
        <path class="cls-2" d="M18.77,24.2c0-1.37,0-2.73,0-4.1,0-.13,0-.28.06-.4.1-.24.32-.36.61-.34.28.03.48.17.53.44.02.11.02.23.02.35,0,2.7,0,5.4,0,8.1,0,.54-.19.8-.6.81-.41,0-.62-.27-.62-.82,0-1.35,0-2.69,0-4.04Z"/>
        <path class="cls-2" d="M27.24,24.21c0,1.4,0,2.8,0,4.19,0,.44-.33.73-.73.65-.28-.06-.46-.22-.48-.48-.02-.2-.01-.4-.01-.6,0-2.56,0-5.13,0-7.69,0-.11,0-.21,0-.32.02-.37.27-.6.62-.6.35,0,.6.25.6.62,0,1.41,0,2.82,0,4.23Z"/>
        <path class="cls-2" d="M17.57,24.24c0,1.06,0,2.12,0,3.18,0,.33-.25.55-.58.56-.33,0-.6-.23-.62-.56,0-.02,0-.04,0-.06,0-2.1,0-4.2,0-6.3,0-.36.24-.61.59-.62.36-.01.62.24.62.63,0,1.06,0,2.12,0,3.18h0Z"/>
        <path class="cls-2" d="M28.43,24.21c0-1.07,0-2.14,0-3.21,0-.33.25-.55.58-.56.34,0,.6.23.63.56,0,.02,0,.04,0,.06,0,2.1,0,4.2,0,6.3,0,.38-.27.64-.62.63-.35,0-.58-.25-.58-.62,0-1.05,0-2.1,0-3.15h0Z"/>
        <path class="cls-2" d="M9.13,24.18c0-.67,0-1.35,0-2.02,0-.4.23-.65.59-.65.37,0,.62.26.62.66,0,1.36,0,2.71,0,4.07,0,.41-.25.67-.62.67-.36,0-.6-.25-.6-.65,0-.69,0-1.39,0-2.08Z"/>
        <path class="cls-2" d="M33.25,24.18c0-.67,0-1.34,0-2.02,0-.39.24-.65.6-.65.36,0,.61.25.61.64,0,1.38,0,2.75,0,4.13,0,.39-.25.64-.61.64-.36,0-.59-.26-.59-.65,0-.69,0-1.39,0-2.08Z"/>
        <path class="cls-2" d="M36.88,24.21c0,.67,0,1.35,0,2.02,0,.43-.22.68-.59.68-.38,0-.62-.26-.62-.69,0-1.36,0-2.71,0-4.07,0-.5.48-.79.92-.56.24.13.3.33.3.57,0,.68,0,1.37,0,2.05Z"/>
        <path class="cls-2" d="M12.75,24.24c0,.68,0,1.37,0,2.05,0,.37-.24.62-.59.63-.36.01-.62-.24-.62-.63,0-1.39,0-2.77,0-4.16,0-.37.25-.61.6-.61.35,0,.6.25.6.61,0,.7,0,1.41,0,2.11Z"/>
        <path class="cls-2" d="M38.07,24.18c0-.33,0-.65,0-.98,0-.36.26-.61.6-.62.34,0,.61.23.62.6.01.68.01,1.36,0,2.04,0,.37-.27.61-.62.6-.35,0-.6-.25-.61-.62,0-.35,0-.69,0-1.04Z"/>
        <path class="cls-2" d="M7.94,24.21c0,.34,0,.67,0,1.01,0,.37-.25.61-.6.62-.34,0-.62-.23-.62-.6-.01-.68-.01-1.36,0-2.04,0-.37.27-.61.61-.61.35,0,.59.25.61.61,0,.01,0,.02,0,.03,0,.33,0,.65,0,.98Z"/>
        <path class="cls-2" d="M15.16,24.22c0,.35,0,.69,0,1.04,0,.34-.26.58-.6.58-.33,0-.6-.25-.6-.58,0-.7,0-1.4,0-2.11,0-.32.26-.55.58-.56.33-.01.61.23.62.56,0,.36,0,.71,0,1.07Z"/>
        <path class="cls-2" d="M30.85,24.21c0-.36,0-.71,0-1.07,0-.32.26-.55.59-.56.33,0,.61.24.61.57,0,.7,0,1.4,0,2.11,0,.33-.27.58-.61.57-.33,0-.58-.25-.59-.59,0-.35,0-.69,0-1.04Z"/>
        <path class="cls-2" d="M6.11,24.19c0,.2.01.4,0,.6-.02.3-.28.5-.61.49-.31,0-.57-.2-.58-.49-.02-.39-.02-.78,0-1.17.01-.3.28-.5.61-.49.32,0,.56.2.58.49.01.19,0,.38,0,.57Z"/>
        <path class="cls-2" d="M29.26,11.39c0,.47-.4.86-.87.86-.47,0-.86-.4-.85-.87,0-.47.4-.86.87-.86.47,0,.86.4.85.87ZM28.4,11.1c-.16,0-.27.11-.28.27,0,.16.11.28.28.28.16,0,.28-.13.28-.29,0-.15-.13-.27-.28-.27Z"/>
        <path class="cls-2" d="M33.83,11.4c-.01.47-.41.85-.87.84-.48-.01-.86-.41-.85-.9.01-.46.42-.84.88-.83.48.01.85.41.84.89ZM32.98,11.1c-.16,0-.28.12-.28.27,0,.16.12.29.28.29.16,0,.28-.11.28-.27,0-.16-.12-.29-.28-.29Z"/>
        <path class="cls-2" d="M31.54,11.38c0,.48-.4.87-.86.86-.47,0-.85-.39-.85-.86,0-.48.38-.87.86-.87.47,0,.86.39.86.87ZM30.68,11.65c.16,0,.29-.13.29-.28,0-.15-.13-.27-.28-.27-.16,0-.29.12-.29.28,0,.15.13.27.28.27Z"/>
      </g>
      <circle class="cls-1" cx="23" cy="23" r="21.06"/>
      <circle class="cls-1" cx="23" cy="23" r="22.5"/>
    </g>
  </g>
</svg>