<svg width="1920" height="749" viewBox="0 0 1920 749" fill="none" xmlns="http://www.w3.org/2000/svg">
<g opacity="0.3">
<path d="M-0.319946 749.17H1934.79" stroke="#F6F5F5" stroke-width="3" stroke-miterlimit="10"/>
<path d="M-0.359985 740.05C138.04 740.05 277.28 744.43 415.57 738.6C536.33 733.5 656.56 740.05 777.36 740.05C833.64 740.05 889.97 739.19 946.21 741.59C1002.37 743.98 1058.4 747.01 1114.54 742.5C1172.18 737.87 1228.62 734.02 1286.51 736.24C1348.45 738.61 1410.08 740.06 1472.07 740.06H1934.75" stroke="#EFEEEE" stroke-width="3" stroke-miterlimit="10"/>
<path d="M-0.400024 730.94C137.59 730.94 277.86 738.11 415.53 728.06C476.87 723.58 536.79 720.56 598.24 725.21C658.1 729.74 717.3 730.94 777.32 730.94C833.64 730.94 889.96 729.83 946.17 733.97C1002.67 738.13 1058.07 743.05 1114.5 735.14C1172.73 726.98 1227.49 720.02 1286.47 724C1348.56 728.18 1409.77 730.95 1472.03 730.95H1934.71" stroke="#E9E8E8" stroke-width="3" stroke-miterlimit="10"/>
<path d="M-0.449951 721.82H213.28C280.63 721.82 348.42 724.48 415.49 717.41C477.36 710.89 536.11 706.55 598.2 713.31C658.25 719.85 716.91 721.82 777.28 721.82C833.69 721.82 889.96 720.48 946.13 726.44C1003.24 732.5 1057.52 739.42 1114.46 727.87C1173.51 715.89 1225.84 705.63 1286.43 711.56C1348.74 717.66 1409.31 721.82 1471.99 721.82H1934.67" stroke="#E4E2E2" stroke-width="3" stroke-miterlimit="10"/>
<path d="M-0.48999 712.71H213.24C280.59 712.71 348.55 715.99 415.45 706.94C477.91 698.49 535.34 692.9 598.16 701.67C658.43 710.08 716.44 712.71 777.24 712.71C833.76 712.71 889.96 711.11 946.09 718.75C1003.85 726.61 1056.97 735.44 1114.42 720.47C1142.84 713.07 1170.68 703.16 1199.69 698.16C1228.67 693.17 1257.39 695.77 1286.39 699.42C1348.97 707.3 1408.76 712.7 1471.95 712.7H1934.63" stroke="#DFDDDD" stroke-width="3" stroke-miterlimit="10"/>
<path d="M-0.530029 703.59H213.2C280.52 703.59 348.72 707.47 415.41 696.9C444.37 692.31 473.18 686.45 502.44 684.06C534.66 681.43 566.37 685.5 598.12 690.7C658.58 700.6 716 703.58 777.2 703.58C833.79 703.58 889.99 701.64 946.05 710.59C1004.2 719.87 1056.65 730.31 1114.38 712.7C1142.79 704.03 1170.43 692.4 1199.65 686.56C1228.62 680.77 1257.37 683.8 1286.35 688.07C1315.93 692.43 1345.24 698.63 1375 701.7C1407.11 705 1439.68 703.59 1471.91 703.59H1934.59" stroke="#DAD8D8" stroke-width="3" stroke-miterlimit="10"/>
<path d="M-0.569946 694.48C70.6701 694.52 141.91 694.46 213.16 694.46C280.38 694.46 348.87 698.89 415.37 687.56C444.31 682.63 473.09 676.24 502.4 673.81C534.65 671.14 566.36 675.29 598.08 680.86C658.66 691.51 715.76 694.43 777.17 694.46C833.73 694.49 890.07 692.13 946.02 701.73C1004.01 711.69 1056.81 723.23 1114.35 704.32C1142.74 694.99 1170.24 682.33 1199.62 676.26C1228.42 670.31 1257.55 673.47 1286.32 678.01C1315.9 682.68 1345.16 689.48 1374.97 692.67C1407.02 696.09 1439.69 694.5 1471.88 694.49C1626.11 694.44 1780.33 694.61 1934.56 694.48" stroke="#D5D3D3" stroke-width="3" stroke-miterlimit="10"/>
<path d="M-0.619995 685.39C70.63 685.77 141.85 683.51 213.11 684.08C280.63 684.62 348.34 689.23 415.32 678.75C444.28 674.22 473.1 668.43 502.35 666.05C534.51 663.43 566.5 667.64 598.33 672.02C658.68 680.33 716.95 682.72 777.75 684.12C834.03 685.42 890.22 683.5 945.96 692.29C1004.08 701.45 1056.58 711.79 1114.29 694.4C1142.71 685.83 1170.36 674.34 1199.56 668.55C1228.56 662.8 1257.28 665.58 1286.26 670.15C1315.84 674.82 1345.1 681.62 1374.91 684.81C1406.97 688.24 1439.64 686.8 1471.82 686.34C1626.07 684.14 1780.29 686.77 1934.49 685.36" stroke="#D1CFCE" stroke-width="3" stroke-miterlimit="10"/>
<path d="M-0.660034 676.27C70.64 676.27 141.73 670.44 213.07 672.31C280.86 674.09 347.75 679.56 415.28 670.62C477.84 662.33 536.09 658.41 599.16 663.14C659.17 667.64 719.12 668.52 779.13 672.25C834.75 675.7 890.65 674.78 945.92 682.15C1003.61 689.84 1056.85 698.55 1114.25 683.91C1142.67 676.66 1170.54 666.93 1199.52 662.03C1228.64 657.1 1257.21 659.53 1286.22 664.11C1315.8 668.78 1345.06 675.58 1374.87 678.77C1406.97 682.21 1439.6 680.58 1471.78 679.35C1545.93 676.5 1620.03 675.96 1694.14 672.18C1774.65 668.07 1854.08 676.54 1934.45 676.27" stroke="#CCCACA" stroke-width="3" stroke-miterlimit="10"/>
<path d="M-0.699951 667.13C70.7101 666.3 141.51 656.07 213.03 659.68C281.05 663.12 347.16 669.84 415.24 662.88C477.33 656.54 537.94 654.22 600.34 654.21C660.65 654.2 720.98 652.64 781 659.42C835.95 665.63 890.96 665.91 945.89 671.56C1002.92 677.43 1057.35 684.22 1114.22 673.04C1173.19 661.45 1225.85 649.6 1286.19 659.12C1315.77 663.79 1345.03 670.59 1374.84 673.78C1407.02 677.23 1439.55 675.21 1471.75 673C1547.48 667.8 1623.12 665.88 1698.76 659.32C1738.39 655.88 1777.86 653.81 1817.57 657.24C1856.65 660.61 1895.1 666.67 1934.42 667.12" stroke="#C7C5C5" stroke-width="3" stroke-miterlimit="10"/>
<path d="M-0.75 658C70.82 656.19 141.19 641.26 212.98 646.79C281.21 652.04 346.58 660.1 415.19 655.31C477.31 650.97 539.55 650.07 601.62 645.31C663.1 640.59 721.88 635.9 783.01 646.3C837.55 655.58 890.82 657 945.83 660.87C1002.28 664.84 1057.78 669.63 1114.16 662.09C1172.46 654.29 1227.33 645.27 1286.13 654.54C1315.71 659.21 1344.97 666.01 1374.78 669.21C1407.09 672.68 1439.47 670.19 1471.69 666.93C1549.11 659.1 1626.45 655.58 1703.74 646.2C1743.87 641.33 1783.55 637.57 1823.82 643.11C1860.95 648.22 1896.71 656.89 1934.37 658.02" stroke="#C3C1C1" stroke-width="3" stroke-miterlimit="10"/>
<path d="M-0.790039 648.86C70.97 646.21 140.83 626.83 212.94 634.14C281.37 641.08 346.07 650.3 415.15 647.58C477.91 645.11 540.55 645.46 602.79 636.4C665.72 627.24 722.17 619.21 784.88 633.45C808.82 638.89 832.59 645.11 857.08 647.6C886.37 650.58 916.35 649.12 945.79 650.29C1001.93 652.52 1058 655.41 1114.12 651.22C1171.85 646.9 1228.45 640.51 1286.09 649.6C1315.67 654.26 1344.93 661.07 1374.74 664.27C1407.21 667.76 1439.4 664.87 1471.65 660.63C1550.62 650.24 1629.56 645.25 1708.37 633.35C1748.86 627.24 1789 621.55 1829.65 629.3C1865.05 636.06 1897.99 647.2 1934.34 648.89" stroke="#BFBCBC" stroke-width="3" stroke-miterlimit="10"/>
<path d="M-0.829956 639.74C71.13 636.68 140.45 613.63 212.9 622.31C246.41 626.32 279.43 633.62 312.97 637.38C346.83 641.17 381.1 639.97 415.1 639.46C478.67 638.51 541.01 639.99 603.63 627.54C635.77 621.15 667.9 613.37 700.63 610.57C730.08 608.05 758.02 613.72 786.3 621.51C809.73 627.96 832.93 635.35 857.15 638.27C886.25 641.78 916.45 639.68 945.75 640.13C1001.84 640.98 1057.99 642.25 1114.08 640.68C1171.41 639.08 1229.12 634.62 1286.05 643.59C1350 653.67 1406.71 663.78 1471.61 653.65C1551.73 641.15 1631.89 635.22 1711.88 621.38C1752.44 614.36 1793.39 606.94 1834.12 616.57C1868.31 624.65 1898.65 637.83 1934.3 639.76" stroke="#BAB8B8" stroke-width="3" stroke-miterlimit="10"/>
<path d="M-0.869995 630.65C71.29 627.91 140.1 602.54 212.86 611.85C246.41 616.14 279.34 624.27 312.93 628.27C346.72 632.3 381.1 630.69 415.06 630.67C478.95 630.63 541.25 633.13 603.91 618.71C668.05 603.95 722.56 591.39 786.93 611.06C810.07 618.13 832.9 626.28 857.04 629.25C886.11 632.83 916.44 630.62 945.69 630.64C1001.8 630.68 1057.91 630.76 1114.02 630.69C1171.13 630.63 1229.4 626.89 1285.99 635.81C1349.86 645.87 1406.77 656.6 1471.55 645.57C1552.22 631.83 1632.92 625.87 1713.5 610.93C1753.86 603.45 1795.75 595.09 1836.29 605.67C1870.08 614.49 1898.54 629.01 1934.23 630.65" stroke="#B6B4B3" stroke-width="3" stroke-miterlimit="10"/>
<path d="M-0.920044 621.52C71.08 618.48 140.3 594.88 212.81 603.72C246.32 607.81 279.33 615.28 312.88 619.12C346.73 622.99 381.01 621.56 415.01 621.56C478.8 621.56 540.95 623.69 603.63 610.07C635.78 603.09 667.95 594.45 700.83 591.68C730.26 589.2 758.2 594.94 786.4 602.9C809.76 609.49 832.87 617.05 857.06 620.03C886.15 623.61 916.37 621.56 945.65 621.56H1113.98C1171.17 621.56 1229.22 618.26 1285.95 626.63C1349.67 636.03 1407.01 646 1471.51 635.73C1551.77 622.94 1632.08 616.93 1712.22 602.83C1752.77 595.69 1793.91 588.01 1834.63 597.88C1868.68 606.13 1898.62 619.62 1934.2 621.56" stroke="#B2AFAF" stroke-width="3" stroke-miterlimit="10"/>
<path d="M-0.959961 612.4C70.83 609.67 140.6 589.53 212.77 597.1C246.24 600.61 279.35 606.98 312.84 610.29C346.75 613.64 380.95 612.44 414.97 612.44C478.25 612.44 540.33 614.32 602.79 602.52C634.58 596.52 666.33 589.21 698.65 586.73C728.07 584.47 756.5 589.63 785.03 596.37C892.24 621.72 1004.29 612.44 1113.94 612.44C1171.18 612.44 1229.01 609.65 1285.91 616.84C1349.22 624.85 1407.59 633.34 1471.47 624.63C1550.67 613.83 1629.85 608.63 1708.89 596.33C1749.43 590.02 1789.73 583.96 1830.43 592.07C1865.55 599.07 1898 610.64 1934.16 612.43" stroke="#AEABAB" stroke-width="3" stroke-miterlimit="10"/>
<path d="M-1 603.3C70.6 601.36 140.89 585.57 212.73 591.4C280.71 596.92 346.61 603.32 414.94 603.32C477.53 603.32 539.52 605.07 601.58 595.69C664.04 586.26 720.49 579.55 783.15 590.86C891.96 610.49 1003.65 603.32 1113.92 603.32C1171.17 603.32 1228.85 601.05 1285.89 606.67C1348.66 612.86 1408.32 619.51 1471.45 612.78C1549.15 604.49 1626.78 600.69 1704.34 590.83C1744.57 585.71 1784.35 581.58 1824.73 587.49C1861.51 592.88 1896.77 602.03 1934.14 603.31" stroke="#AAA7A7" stroke-width="3" stroke-miterlimit="10"/>
<path d="M-1.04004 594.21C70.4 593.25 141.13 582.15 212.69 586.08C280.38 589.79 347.04 594.21 414.9 594.21C476.8 594.21 538.58 595.82 600.21 589.16C661.46 582.54 719.65 578.23 781.04 585.76C891.26 599.29 1002.96 594.21 1113.87 594.21C1171.14 594.21 1228.67 592.47 1285.84 596.37C1348.13 600.62 1408.93 605.29 1471.4 600.65C1547.41 595 1623.34 592.82 1699.26 585.74C1739.01 582.03 1778.53 579.66 1818.38 583.42C1857.1 587.08 1895.09 593.61 1934.08 594.22" stroke="#A6A3A3" stroke-width="3" stroke-miterlimit="10"/>
<path d="M-1.08997 585.11C70.23 585.02 141.28 578.43 212.64 580.56C280.15 582.58 347.28 585.09 414.85 585.09C476.21 585.09 537.65 586.44 598.91 582.46C659.24 578.54 718.63 576.2 779.02 580.45C890.34 588.28 1002.26 585.09 1113.81 585.09C1232.81 585.09 1352.5 593.8 1471.34 588.66C1545.74 585.44 1620.08 584.69 1694.43 580.42C1774.84 575.8 1853.78 585.14 1934 585.1" stroke="#A29F9F" stroke-width="3" stroke-miterlimit="10"/>
<path d="M-1.13 576C137.47 576.74 276.18 575.98 414.8 575.98C535.61 575.98 656.69 570.85 777.44 574.33C889.49 577.56 1001.68 575.98 1113.77 575.98C1232.91 575.98 1352.19 579.4 1471.3 577.28C1544.43 575.98 1617.53 576.12 1690.65 574.3C1771.82 572.28 1852.82 576.68 1933.96 575.99" stroke="#9E9B9B" stroke-width="3" stroke-miterlimit="10"/>
<path d="M-1.17004 566.86C489.62 568.04 980.47 567.85 1471.26 566.93C1625.48 566.64 1779.71 567.4 1933.93 566.85" stroke="#9A9797" stroke-width="3" stroke-miterlimit="10"/>
<path d="M-1.20996 557.74C489.53 557.74 980.5 553.35 1471.22 557.86C1625.43 559.28 1779.68 557.74 1933.9 557.74" stroke="#969393" stroke-width="3" stroke-miterlimit="10"/>
<path d="M-1.26001 548.63C69.95 548.63 141.27 547.44 212.47 548.87C279.95 550.23 347.16 553.13 414.68 551.06C535.23 547.36 655.86 548.64 776.47 548.64C1007.93 548.64 1239.74 542.41 1471.18 549.55C1625.3 554.3 1779.65 548.64 1933.86 548.64" stroke="#928F8F" stroke-width="3" stroke-miterlimit="10"/>
<path d="M-1.30005 539.51C69.8299 539.51 141.36 537.28 212.43 540.34C280.18 543.25 346.77 548.63 414.64 544.58C535.13 537.4 655.76 539.51 776.43 539.51C832.73 539.51 889.06 540.56 945.28 537.18C1001.58 533.8 1057.2 530.88 1113.61 534.09C1232.75 540.87 1352.14 534.57 1471.14 541.68C1544.25 546.05 1615.26 546.48 1688.38 542.01C1769.97 537.02 1852.1 539.51 1933.81 539.51" stroke="#8F8C8C" stroke-width="3" stroke-miterlimit="10"/>
<path d="M-1.33997 530.4C69.64 530.4 141.55 527.05 212.39 531.94C280.63 536.65 346.09 544.76 414.6 538.48C534.99 527.45 655.56 530.4 776.39 530.4C832.75 530.4 889.06 531.7 945.24 526.52C1001.87 521.29 1056.71 516.78 1113.57 521.79C1171.19 526.86 1227.66 530.41 1285.54 530.41C1347.37 530.41 1409.47 528.39 1471.1 534.05C1506.49 537.3 1541.86 541.79 1577.44 542.11C1614.57 542.45 1651.44 538.03 1688.34 534.56C1769.71 526.92 1852.13 530.41 1933.77 530.41" stroke="#8B8888" stroke-width="3" stroke-miterlimit="10"/>
<path d="M-1.38 521.28C69.41 521.28 141.83 516.86 212.35 523.5C281.23 529.99 345.21 540.8 414.56 532.27C534.83 517.49 655.3 521.28 776.35 521.28C832.81 521.28 889.07 522.85 945.2 515.9C1002.25 508.84 1056.06 502.77 1113.53 509.56C1171.36 516.4 1227.2 521.28 1285.5 521.28C1347.35 521.28 1409.56 518.75 1471.06 526.33C1506.37 530.68 1541.74 536.77 1577.4 537.27C1614.6 537.79 1651.5 531.66 1688.3 527.03C1769.38 516.83 1852.16 521.28 1933.73 521.28" stroke="#878484" stroke-width="3" stroke-miterlimit="10"/>
<path d="M-1.43005 512.16C69.1499 512.16 142.11 506.83 212.3 514.86C245.8 518.69 278.85 525.71 312.37 529.37C346.84 533.14 380.3 530.63 414.5 525.53C476.11 516.34 534.92 512.16 597.21 512.16H776.29C832.83 512.16 889.07 514.04 945.14 505.62C1002.57 496.99 1055.44 489.58 1113.47 497.91C1171.53 506.25 1226.7 512.16 1285.44 512.16C1347.3 512.16 1409.65 509.13 1471 518.3C1506.25 523.57 1541.59 530.99 1577.34 531.6C1614.65 532.24 1651.52 524.77 1688.24 519.16C1768.99 506.82 1852.19 512.16 1933.67 512.16" stroke="#848181" stroke-width="3" stroke-miterlimit="10"/>
<path d="M-1.46997 503.05C68.94 503.05 142.33 497.1 212.26 505.88C245.8 510.1 278.76 518.04 312.33 522.06C346.82 526.19 380.3 523.49 414.46 517.8C443.42 512.98 472.2 506.72 501.49 504.19C533.16 501.46 565.4 503.04 597.17 503.04H776.25C832.8 503.04 889.14 505.33 945.1 495.94C1002.69 486.28 1055.07 477.97 1113.43 487.3C1171.68 496.61 1226.3 503.04 1285.4 503.04C1344.5 503.04 1409.8 499.48 1470.96 509.69C1506.19 515.57 1541.44 523.78 1577.3 524.41C1614.76 525.07 1651.48 516.94 1688.2 510.67C1768.63 496.93 1852.29 503.04 1933.63 503.04" stroke="#807D7D" stroke-width="3" stroke-miterlimit="10"/>
<path d="M-1.51001 493.93C68.94 493.93 142.23 488.12 212.22 496.77C245.75 500.91 278.74 508.64 312.29 512.61C346.81 516.69 380.25 514.19 414.42 508.38C443.37 503.46 472.14 497.03 501.45 494.53C533.12 491.83 565.37 493.32 597.13 493.56C656.82 494.01 716.51 493.61 776.21 494.07C832.77 494.5 889.1 496.91 945.06 487.33C1002.74 477.46 1054.89 469.31 1113.39 478.46C1171.55 487.56 1226.35 494.27 1285.36 493.93C1347.19 493.57 1409.72 489.66 1470.92 500.08C1506.15 506.08 1541.37 514.46 1577.26 515C1614.69 515.56 1651.43 507.61 1688.16 501.48C1768.68 488.03 1852.2 493.93 1933.59 493.93" stroke="#7D7A79" stroke-width="3" stroke-miterlimit="10"/>
<path d="M-1.55005 484.82C69.09 484.82 141.9 479.72 212.18 487.4C281.45 494.97 344.61 508.7 414.39 496.86C443.34 491.95 472.11 485.51 501.42 483.01C533.11 480.3 565.34 481.98 597.1 482.89C656.8 484.6 716.49 484.14 776.18 485.87C832.87 487.51 888.88 490.25 945.03 480.64C1002.71 470.77 1054.8 463.13 1113.36 471.17C1171.34 479.13 1226.64 485.73 1285.33 484.32C1347.35 482.82 1409.41 478.09 1470.89 488.56C1506.12 494.56 1541.33 502.94 1577.23 503.48C1614.51 504.04 1651.39 496.93 1688.13 491.56C1768.98 479.74 1852.04 484.83 1933.56 484.83" stroke="#797676" stroke-width="3" stroke-miterlimit="10"/>
<path d="M-1.59998 475.7C69.24 475.7 141.52 471.57 212.13 477.73C280.9 483.73 345.4 495.66 414.34 483.96C443.29 479.05 472.06 472.61 501.37 470.1C533.11 467.38 565.31 469.55 597.05 471.38C656.74 474.82 716.47 474.77 776.13 478.24C833.04 481.55 888.49 484.98 944.98 475.32C1002.53 465.48 1054.81 458.33 1113.31 464.77C1171.14 471.14 1226.97 477.18 1285.28 474.24C1347.57 471.11 1408.9 465.08 1470.84 475.62C1506.09 481.62 1541.27 489.91 1577.18 490.55C1614.33 491.21 1651.29 485.37 1688.08 481.05C1769.25 471.51 1851.91 475.69 1933.51 475.69" stroke="#767373" stroke-width="3" stroke-miterlimit="10"/>
<path d="M-1.64001 466.59C69.39 466.59 141.18 463.56 212.09 467.91C280.36 472.1 346.18 481.94 414.3 470.39C443.25 465.48 472.02 459.04 501.33 456.53C533.16 453.8 565.28 456.62 597.01 459.49C656.68 464.88 716.47 465.47 776.09 470.9C833.28 476.11 887.99 480.42 944.94 470.68C1002.31 460.87 1054.91 454.22 1113.27 458.84C1170.96 463.41 1227.34 468.64 1285.24 463.99C1347.88 458.96 1408.25 451.41 1470.8 462.06C1506.09 468.06 1541.21 476.22 1577.14 477C1614.19 477.81 1651.19 473.45 1688.04 470.32C1769.48 463.4 1851.8 466.6 1933.47 466.6" stroke="#736F6F" stroke-width="3" stroke-miterlimit="10"/>
<path d="M-1.68005 457.47C69.4799 457.47 140.93 455.55 212.05 458.1C279.88 460.53 346.84 468.3 414.26 456.87C443.21 451.96 471.98 445.52 501.29 443C533.25 440.26 565.25 443.72 596.97 447.61C656.62 454.93 716.5 456.16 776.05 463.53C833.53 470.64 887.4 475.81 944.9 465.98C1002.09 456.2 1055.05 450.04 1113.23 452.86C1170.76 455.65 1227.73 460.05 1285.2 453.73C1348.22 446.8 1407.5 437.75 1470.76 448.51C1506.08 454.52 1541.15 462.54 1577.1 463.46C1614.08 464.41 1651.1 461.51 1688 459.57C1769.64 455.26 1851.7 457.47 1933.43 457.47" stroke="#6F6C6C" stroke-width="3" stroke-miterlimit="10"/>
<path d="M-1.71997 448.36C69.5 448.36 140.79 447.42 212.01 448.47C279.5 449.46 347.31 455.46 414.22 444.11C443.17 439.2 471.94 432.76 501.25 430.24C533.35 427.48 565.22 431.41 596.93 436.19C656.55 445.18 716.53 446.79 776.01 455.84C833.75 464.62 886.84 470.43 944.86 460.52C1001.93 450.77 1055.17 445.09 1113.19 446.39C1170.55 447.67 1228.1 451.45 1285.16 443.73C1348.55 435.16 1406.75 424.87 1470.72 435.75C1506.05 441.76 1541.1 449.7 1577.06 450.71C1614 451.75 1651.03 450.06 1687.96 449.14C1769.72 447.11 1851.61 448.36 1933.39 448.36" stroke="#6C6969" stroke-width="3" stroke-miterlimit="10"/>
<path d="M-1.77002 439.24C69.47 439.24 140.72 439.02 211.96 439.16C279.2 439.29 347.61 444.12 414.17 432.83C443.12 427.92 471.89 421.48 501.2 418.96C533.42 416.19 565.16 420.23 596.88 425.64C656.49 435.8 716.54 437.29 775.96 447.51C833.88 457.47 886.41 463.55 944.81 453.57C1001.85 443.82 1055.2 438.66 1113.14 438.92C1170.31 439.18 1228.41 442.8 1285.11 434.18C1348.8 424.49 1406.13 413.48 1470.67 424.45C1506 430.46 1541.05 438.42 1577.01 439.41C1613.94 440.43 1650.98 439.48 1687.91 439.29C1769.72 438.85 1851.54 439.24 1933.34 439.24" stroke="#696666" stroke-width="3" stroke-miterlimit="10"/>
<path d="M-1.81006 430.1C69.4299 429.45 140.68 431.16 211.92 430.89C278.96 430.63 347.81 434.35 414.13 423.44C477.1 413.08 533.3 405.69 596.84 416.52C656.45 426.68 716.5 428.17 775.92 438.39C833.9 448.36 886.3 454.18 944.77 444.49C1001.81 435.04 1055.26 430.38 1113.1 430.13C1170.25 429.87 1228.4 433.13 1285.07 424.74C1348.73 415.32 1406.18 404.68 1470.63 415.31C1505.94 421.14 1541.07 428.92 1576.97 429.96C1613.88 431.03 1650.94 430.12 1687.87 430.12H1933.3" stroke="#666363" stroke-width="3" stroke-miterlimit="10"/>
<path d="M-1.84998 420.98C69.47 420.29 140.49 427.82 211.88 425.74C278.74 423.78 347.9 424.6 414.09 414.96C476.74 405.83 533.7 399.32 596.8 408.83C656.42 417.82 716.4 419.44 775.88 428.48C833.62 437.26 886.61 442.41 944.73 433.88C1001.53 425.55 1055.71 421.79 1113.06 420.52C1170.27 419.24 1228.14 420.83 1285.03 414.34C1348.11 407.14 1407.13 398.5 1470.59 407.76C1623.2 430.05 1779.24 421.02 1933.27 421.02" stroke="#636060" stroke-width="3" stroke-miterlimit="10"/>
<path d="M-1.89001 411.87C69.74 412.33 139.96 428.01 211.84 422.88C245.28 420.49 278.46 415.3 311.91 413.01C346.06 410.67 379.95 411.04 414.04 407C476.15 399.64 534.34 394.35 596.75 402C656.4 409.31 716.28 410.56 775.83 417.92C833.12 425 887.14 429.19 944.68 422.33C1001.12 415.6 1056.32 413.14 1113.01 410.39C1170.3 407.61 1227.76 406.98 1284.98 403.35C1347.32 399.39 1408.21 393.73 1470.54 401.13C1623.68 419.32 1779.14 411.89 1933.22 411.89" stroke="#605D5D" stroke-width="3" stroke-miterlimit="10"/>
<path d="M-1.93994 402.78C70.1801 405.02 139.12 430.11 211.79 421.23C245.34 417.13 278.29 409.15 311.86 405.18C345.7 401.18 380.01 402.29 413.99 399.33C475.53 393.98 534.99 390.08 596.7 395.64C656.37 401.02 716.16 401.63 775.78 407.05C832.59 412.22 887.68 415.29 944.63 410.31C1000.76 405.39 1056.87 404.45 1112.96 400.02C1230.85 390.71 1352.44 384.71 1470.49 395C1624.09 408.38 1779.05 402.77 1933.17 402.77" stroke="#5D5A5A" stroke-width="3" stroke-miterlimit="10"/>
<path d="M-1.97998 393.69C70.67 397.78 138.13 432.42 211.75 419.67C245.45 413.83 278.09 403.07 311.82 397.38C345.44 391.71 379.98 393.56 413.95 391.69C534.35 385.06 655.36 389.2 775.74 396.18C832.2 399.46 888.07 401.41 944.59 398.27C1000.57 395.16 1057.21 395.76 1112.92 389.64C1170.93 383.27 1226.43 377.54 1284.89 380.79C1346.74 384.23 1408.64 385.49 1470.45 388.91C1624.4 397.42 1778.97 393.66 1933.13 393.66" stroke="#5A5757" stroke-width="3" stroke-miterlimit="10"/>
<path d="M-2.02002 384.58C71.15 389.98 137.12 433.23 211.71 417.05C245.58 409.71 277.87 396.46 311.78 389.28C345.25 382.2 379.9 384.69 413.91 383.77C534.4 380.51 655.22 382.08 775.7 385.57C832.01 387.2 888.23 388.16 944.55 386.62C1000.53 385.09 1057.34 387.07 1112.88 379.48C1171.34 371.49 1225.73 363.37 1284.85 369.75C1347.15 376.47 1407.77 380.69 1470.41 382.39C1624.55 386.58 1778.89 384.54 1933.09 384.54" stroke="#575454" stroke-width="3" stroke-miterlimit="10"/>
<path d="M-2.06995 375.46C71.6601 381.03 136.09 430.78 211.66 412.3C245.7 403.97 277.64 388.76 311.73 380.62C345.03 372.67 379.89 375.6 413.86 375.37C534.44 374.54 655.07 374.65 775.65 375.56C831.93 375.99 888.22 376.24 944.5 375.84C1000.51 375.45 1057.34 378.43 1112.83 369.79C1171.49 360.65 1225.32 350.64 1284.8 359.22C1314.39 363.49 1343.71 369.58 1373.45 372.78C1405.58 376.23 1438.09 374.77 1470.36 375C1624.58 376.07 1778.82 375.43 1933.04 375.43" stroke="#545251" stroke-width="3" stroke-miterlimit="10"/>
<path d="M-2.10999 366.33C71.79 371.64 135.79 422.68 211.62 403.85C245.7 395.39 277.56 379.76 311.69 371.48C344.92 363.42 379.9 366.3 413.82 366.3C534.41 366.3 655.03 367.14 775.61 366.25C831.89 365.84 888.18 365.6 944.46 365.97C1000.55 366.34 1057.21 369.46 1112.79 360.62C1171.36 351.3 1225.33 340.7 1284.76 349.79C1314.36 354.32 1343.63 360.95 1373.41 364.25C1405.49 367.8 1438.1 366.3 1470.32 366.3C1624.53 366.3 1778.77 367.04 1932.98 366.31" stroke="#514F4E" stroke-width="3" stroke-miterlimit="10"/>
<path d="M-2.15002 357.23C71.16 362.76 136.73 408.1 211.58 391.19C245.5 383.53 277.69 369.68 311.65 362.16C345.09 354.76 379.76 357.2 413.78 357.2C534.16 357.2 655.3 361.09 775.57 355.78C831.89 353.29 888.06 351.81 944.42 354.16C1000.82 356.51 1056.61 359.96 1112.75 351.94C1171.17 343.6 1225.62 334.11 1284.72 342.25C1314.31 346.32 1343.64 352.19 1373.37 355.21C1405.51 358.48 1438.02 357.2 1470.28 357.2C1543.7 357.2 1617.01 357.33 1690.41 355.3C1771.34 353.07 1852.03 357.77 1932.92 357.22" stroke="#4F4C4C" stroke-width="3" stroke-miterlimit="10"/>
<path d="M-2.18994 348.11C70.5901 352.56 137.67 389.77 211.54 376.06C245.29 369.79 277.84 358.31 311.61 352.16C345.23 346.04 379.72 348.09 413.74 348.09C533.5 348.09 656.27 355.77 775.53 343.98C832.25 338.37 887.48 334.99 944.38 340.37C1001.19 345.73 1055.73 350.48 1112.71 343.78C1170.81 336.95 1226.11 329.16 1284.68 335.79C1347.16 342.86 1407.26 348.1 1470.24 348.1C1545.33 348.1 1619.87 347.68 1694.85 343.25C1774.84 338.53 1853.1 347.86 1932.89 348.12" stroke="#4C4949" stroke-width="3" stroke-miterlimit="10"/>
<path d="M-2.23999 338.97C70.02 341.65 138.58 369.46 211.49 359.56C245.08 355 277.96 346.24 311.56 341.77C345.33 337.27 379.71 338.96 413.69 338.96H596.4C656.43 338.96 716.04 341.15 775.48 331.43C833.18 322 886.16 316.34 944.33 325.47C1001.61 334.46 1054.55 340.95 1112.66 335.87C1170.41 330.82 1226.61 325.02 1284.63 329.89C1346.84 335.11 1407.7 338.95 1470.19 338.95C1547.5 338.95 1623.28 337.58 1700.32 330.47C1740.38 326.77 1780.29 324.01 1820.45 327.89C1858.09 331.53 1894.95 338.18 1932.87 338.95" stroke="#494746" stroke-width="3" stroke-miterlimit="10"/>
<path d="M-2.28003 329.84C69.47 330.67 139.39 348.91 211.45 342.85C244.92 340.04 278.05 334.09 311.52 331.34C345.42 328.55 379.67 329.86 413.65 329.86H596.36C656.89 329.86 716.07 332.43 775.44 318.8C801.79 312.75 827.98 305.63 854.92 302.61C885.32 299.21 914.64 303.86 944.29 310.42C970.49 316.22 996.39 323.5 1023.01 327.25C1052.71 331.43 1082.78 329.73 1112.62 328.05C1170.11 324.81 1226.99 321.04 1284.59 324.14C1346.61 327.48 1408.02 329.85 1470.15 329.85C1549.9 329.85 1626.7 327.36 1705.97 317.62C1746.55 312.64 1787.03 307.91 1827.75 313.95C1863.13 319.2 1896.89 328.39 1932.86 329.82" stroke="#474444" stroke-width="3" stroke-miterlimit="10"/>
<path d="M-2.31995 320.72C69.0601 320.19 139.93 329.8 211.41 327.02C279.02 324.39 345.89 320.74 413.62 320.74H596.33C657.43 320.74 716.15 323.78 775.41 306.63C801.68 299.03 827.72 290.09 854.89 286.16C885.61 281.71 914.71 287.81 944.26 296.06C970.44 303.36 996.17 312.48 1022.98 317.32C1052.48 322.64 1082.77 320.88 1112.59 320.03C1231.9 316.61 1350.8 320.75 1470.12 320.75C1505.56 320.75 1541.02 321.16 1576.46 320.75C1621.69 320.22 1666.32 311.82 1710.95 305.23C1751.79 299.2 1793.23 292.36 1834.22 300.58C1867.72 307.3 1898.34 318.8 1932.86 320.7" stroke="#444241" stroke-width="3" stroke-miterlimit="10"/>
<path d="M-2.35999 311.6C136.17 309.96 275 311.62 413.57 311.62H596.28C657.65 311.62 716.44 315.44 775.36 295.55C801.51 286.72 827.47 276.42 854.84 271.95C885.8 266.9 914.8 273.81 944.21 283.29C970.36 291.71 995.93 302.28 1022.93 307.82C1052.24 313.84 1082.79 311.8 1112.54 311.56C1231.73 310.58 1350.88 311.62 1470.07 311.62C1505.51 311.62 1540.97 312.05 1576.41 311.62C1622.9 311.06 1668.63 301.37 1714.35 293.83C1755.15 287.1 1797.78 278.56 1838.73 288.46C1871.06 296.28 1898.97 309.56 1932.81 311.58" stroke="#413F3F" stroke-width="3" stroke-miterlimit="10"/>
<path d="M-2.41003 302.51C136.23 302.51 274.88 302.78 413.52 302.53C474.42 302.42 535.33 302.32 596.23 302.44C657.61 302.56 716.6 306.79 775.31 286.04C801.42 276.81 827.32 265.96 854.79 261.45C885.77 256.36 914.82 263.44 944.15 273.19C970.33 281.9 995.88 292.85 1022.98 298.55C1052.24 304.71 1082.83 302.23 1112.57 302.32C1231.71 302.68 1350.88 303.1 1470.02 302.67C1505.46 302.54 1540.92 302.73 1576.36 302.47C1623.2 302.13 1669.21 291.96 1715.21 284.12C1755.9 277.18 1799.13 268.12 1839.96 278.5C1872.06 286.65 1898.88 300.62 1932.73 302.49" stroke="#3F3D3C" stroke-width="3" stroke-miterlimit="10"/>
<path d="M-2.44995 293.39C136.14 293.39 274.91 295.42 413.48 293C474.4 291.93 535.27 291.07 596.19 292.2C657.74 293.35 715.86 296.85 775.27 278.07C801.5 269.77 827.46 259.99 854.75 255.68C885.4 250.85 914.93 257.72 944.49 265.61C971.06 272.7 997.25 281.38 1024.34 286.34C1053.8 291.74 1083.84 289.76 1113.67 290.7C1232.01 294.43 1351.64 300.19 1469.99 296.03C1505.46 294.78 1540.84 293.51 1576.33 293.3C1622.29 293.03 1667.67 283.65 1712.92 276.49C1753.79 270.02 1795.9 262.13 1836.92 271.37C1869.66 278.74 1898.71 291.31 1932.74 293.35" stroke="#3C3A3A" stroke-width="3" stroke-miterlimit="10"/>
<path d="M-2.48999 284.28C135.9 284.28 275.17 288.77 413.44 282.87C474.47 280.26 535.08 278.24 596.15 280.97C657.52 283.72 715.23 287.31 775.23 271.5C801.54 264.57 827.65 256.41 854.71 252.83C885.06 248.82 915.4 253.95 945.37 258.91C972.52 263.41 999.53 268.84 1026.88 272.08C1056.38 275.58 1086.11 274.56 1115.72 276.93C1171.96 281.43 1228.24 281.95 1284.39 286.26C1346.73 291.05 1407.35 296.89 1469.95 291.53C1549.87 284.68 1629.03 281.12 1708.61 270.19C1749.39 264.59 1790.39 258.65 1831.33 265.9C1865.6 271.97 1897.62 282.49 1932.69 284.23" stroke="#3A3837" stroke-width="3" stroke-miterlimit="10"/>
<path d="M-2.53003 275.16C135.44 275.16 275.76 282.47 413.4 272.37C474.74 267.87 534.64 264.45 596.11 269.15C657.18 273.81 714.68 277.82 775.19 265.73C801.57 260.46 827.83 254.21 854.67 251.65C885.09 248.75 916.1 251.26 946.55 252.73C1003.45 255.48 1061.9 253.9 1118.31 261.93C1144.99 265.73 1171.44 271.19 1198.31 273.67C1227.03 276.33 1255.66 275.42 1284.34 279.27C1347.67 287.77 1405.85 297.67 1469.9 288.25C1547.52 276.83 1625.15 273.19 1703.13 264.63C1743.52 260.2 1783.75 256.36 1824.27 261.38C1860.63 265.89 1895.81 273.96 1932.6 275.13" stroke="#373535" stroke-width="3" stroke-miterlimit="10"/>
<path d="M-2.57996 266.04H211.15C278.46 266.04 346.33 268.86 413.36 261.8C475.21 255.29 533.97 250.4 596.07 257.18C656.85 263.82 714.25 268.28 775.15 260.15C832.8 252.46 889.88 250.69 947.81 246.69C1005.53 242.7 1063.86 234.53 1121.05 246.61C1146.98 252.09 1172.45 259.75 1198.73 263.51C1227.28 267.59 1255.81 266.9 1284.29 272.43C1313.92 278.19 1343.03 286.57 1372.94 290.87C1405.91 295.61 1437.45 292.14 1469.85 285.3C1505.09 277.86 1540.02 267.82 1576.19 266.28C1616.69 264.56 1656.92 262.41 1697.36 259.28C1737.18 256.19 1776.94 254.14 1816.83 257.13C1855.5 260.03 1893.65 265.55 1932.5 266.05" stroke="#353333" stroke-width="3" stroke-miterlimit="10"/>
<path d="M-2.62 256.93H211.11C278.4 256.93 346.48 260.4 413.32 251.4C475.74 243 533.21 236.73 596.03 245.5C656.6 253.95 713.95 258.61 775.11 254.19C833.23 249.99 891.4 250.32 948.92 240.42C1007.73 230.3 1064.58 215.53 1123.53 231.9C1148.77 238.91 1173.28 248.63 1199.09 253.52C1227.48 258.9 1255.97 258.2 1284.26 265.31C1313.91 272.76 1342.8 283.29 1372.91 288.91C1406.32 295.15 1437.32 290.55 1469.82 281.77C1504.84 272.32 1539.63 259.3 1576.16 257.3C1614.72 255.18 1653.57 255.28 1692.19 253.56C1772.59 249.99 1852.16 257.11 1932.45 256.96" stroke="#323130" stroke-width="3" stroke-miterlimit="10"/>
<path d="M-2.66003 247.81H211.07C278.3 247.81 346.67 251.91 413.28 241.44C476.12 231.56 532.6 224.19 595.99 234.52C656.49 244.39 713.74 248.74 775.07 247.22C834.22 245.76 891.84 247.88 949.65 233.52C1008.98 218.78 1064.9 198.7 1125.33 218.69C1150.06 226.87 1173.73 238.26 1199.26 243.94C1227.57 250.24 1256.02 249.18 1284.22 257.44C1313.91 266.14 1342.56 278.44 1372.87 285C1406.52 292.28 1437.36 286.93 1469.78 276.71C1504.64 265.72 1539.21 250.44 1576.12 248.21C1613.31 245.96 1651.16 247.47 1688.44 246.88C1769.79 245.59 1851.08 248.43 1932.41 247.84" stroke="#302E2E" stroke-width="3" stroke-miterlimit="10"/>
<path d="M-2.69995 238.7C68.54 238.64 139.79 238.7 211.03 238.7C278.14 238.7 346.84 243.32 413.24 232.15C476.2 221.55 532.34 213.61 595.95 224.71C656.58 235.29 713.55 238.7 775.03 238.7C836.51 238.7 892.13 242 949.79 225.55C1009.16 208.61 1064.87 186.24 1126.01 207.99C1150.5 216.7 1173.72 229.03 1199.18 234.94C1227.53 241.52 1255.93 239.71 1284.19 248.51C1313.9 257.76 1342.39 271.08 1372.84 277.92C1406.39 285.47 1437.6 279.98 1469.75 269.16C1504.6 257.43 1538.87 241.18 1576.09 239.03C1612.84 236.91 1650.19 238.71 1687 238.7C1768.81 238.67 1850.62 238.7 1932.43 238.7" stroke="#2D2C2B" stroke-width="3" stroke-miterlimit="10"/>
<path d="M-2.75 229.58C68.59 229.25 139.94 230.56 211.28 230.56C278.4 230.56 346.99 235.05 413.42 224.1C442.3 219.34 470.99 213.06 500.19 210.48C532.37 207.64 564.13 211.48 595.89 216.54C656.38 226.19 713.77 229.58 774.97 229.58C836.17 229.58 891.68 232.32 949.44 217.07C1009.05 201.33 1063.88 181.29 1124.98 201.01C1149.78 209.01 1173.59 220.14 1199.15 225.73C1227.46 231.92 1255.92 230.95 1284.12 239.03C1313.8 247.54 1342.5 259.57 1372.77 266.01C1406.4 273.17 1437.22 267.94 1469.68 257.93C1504.58 247.17 1539.17 232.28 1576.02 229.98C1612.86 227.68 1650.39 229.37 1687.32 229.05C1769.18 228.35 1851.06 228.83 1932.92 228.83" stroke="#2A2929" stroke-width="3" stroke-miterlimit="10"/>
<path d="M-2.79004 220.46C70.5 220.36 143.73 223.68 217.04 223.68C281.66 223.68 347.56 227.83 411.59 217.86C442.07 213.11 472.32 206.57 503.13 204.24C534.99 201.83 566.61 205.48 598.16 209.73C656.25 217.56 712.21 220.46 770.79 220.46C829.37 220.46 889.77 223.11 948.7 209.81C1007.59 196.52 1062.12 180.24 1122.17 196.12C1147.39 202.79 1171.91 212.04 1197.6 216.87C1227.59 222.5 1257.68 221.95 1287.57 229.35C1315.19 236.19 1342.21 245.38 1370.19 250.72C1403.27 257.03 1433.99 253.56 1466.42 245.31C1501.32 236.43 1535.83 223.76 1571.98 221C1608.73 218.19 1646.29 219.81 1683.16 218.97C1766.81 217.08 1850.53 218.02 1934.19 218.02" stroke="#282726" stroke-width="3" stroke-miterlimit="10"/>
<path d="M-2.82996 211.35C70.82 211.81 144.22 217.57 217.93 217.57C282.45 217.57 348.21 221.6 412.2 212.11C475.82 202.68 533.82 196.54 598.11 203.2C655.98 209.2 712.58 211.35 770.74 211.35C828.9 211.35 888.89 213.77 947.45 203.37C1005.7 193.02 1060.48 181.18 1119.51 192.82C1145.42 197.93 1170.91 205.11 1197.1 208.74C1227.27 212.93 1257.42 212.3 1287.52 217.95C1349.38 229.57 1403.25 242.57 1466.37 230.25C1501.39 223.41 1536.14 213.59 1571.93 211.68C1609.23 209.69 1646.78 209.97 1684.13 208.5C1767.97 205.21 1851.98 206.6 1935.88 206.6" stroke="#252424" stroke-width="3" stroke-miterlimit="10"/>
<path d="M-2.87 202.24C71.21 203.36 144.7 211.7 218.89 211.7C283.31 211.7 348.92 215.6 412.85 206.64C475.8 197.82 534.44 192.38 598.07 196.87C655.77 200.94 712.87 202.24 770.7 202.24C828.53 202.24 887.9 204.39 946.1 197.18C1003.44 190.08 1058.9 182.51 1116.66 189.97C1143.32 193.41 1169.77 198.41 1196.56 200.76C1226.9 203.42 1257.17 202.52 1287.48 206.35C1348.2 214.04 1404.99 222.85 1466.33 214.75C1622.53 194.12 1780.29 195.03 1937.71 195.03" stroke="#222221" stroke-width="3" stroke-miterlimit="10"/>
<path d="M-2.92004 193.12C71.59 194.79 145.08 205.56 219.76 205.56C284.09 205.56 349.55 209.32 413.45 200.86C475.84 192.6 535.01 187.82 598.02 190.31C655.61 192.59 713.02 193.12 770.65 193.12C828.28 193.12 886.94 194.81 944.86 190.71C1001.37 186.7 1057.35 182.72 1114.01 186.64C1171.83 190.64 1229.7 190.98 1287.43 194.99C1347.36 199.15 1406.15 204.12 1466.28 199.72C1623.89 188.19 1781.34 183.64 1939.38 183.64" stroke="#201F1F" stroke-width="3" stroke-miterlimit="10"/>
<path d="M-2.95996 184.01C71.88 185.9 145.32 198.65 220.4 198.65C284.68 198.65 350.01 202.27 413.9 194.2C475.91 186.37 535.43 182.2 597.98 183.13C655.53 183.99 713.05 184.01 770.61 184.01C884.33 184.01 998.33 179.16 1111.99 181.92C1229.8 184.78 1348.41 189.27 1466.24 186.14C1539.97 184.18 1613.33 183.6 1686.86 177.4C1771.19 170.3 1856.05 172.86 1940.61 172.86" stroke="#1D1C1C" stroke-width="3" stroke-miterlimit="10"/>
<path d="M-3 174.89C71.97 176.45 145.38 190.44 220.64 190.44C284.93 190.44 350.17 193.91 414.08 186.06C475.96 178.46 535.58 174.86 597.93 174.88C655.47 174.9 713.02 174.88 770.56 174.88C1002.44 174.88 1234.31 175.04 1466.19 174.9C1540.24 174.86 1613.34 174.58 1687.14 167.83C1771.47 160.12 1856.49 163.03 1941.09 163.03" stroke="#1A1919" stroke-width="3" stroke-miterlimit="10"/>
<path d="M-2.90002 160.95C72.13 169.88 143.69 181.14 219.57 180.32C284.24 179.62 349.52 180.77 413.93 174.78C475.58 169.04 535.94 165.28 597.89 166.09C655.48 166.84 713.12 167.77 770.7 166.3C1002.45 160.38 1234.31 169.05 1466.1 165.59C1539.94 164.49 1613.32 163.79 1686.99 158.26C1771.41 151.93 1856.25 153.69 1940.87 149.24" stroke="#171716" stroke-width="3" stroke-miterlimit="10"/>
<path d="M-2.54004 138.42C70.5 157.72 138.75 170.47 214.53 167.83C281.32 165.5 348.08 162.83 414.87 160.43C475.63 158.25 536.11 155.75 596.9 158.01C655.95 160.2 714.71 162.21 773.72 157.92C886 149.76 1002.18 147.29 1114.62 154.7C1233.08 162.51 1352.2 160.75 1470.83 155.24C1543.77 151.85 1616.71 150.76 1689.66 147.48C1728.61 145.73 1767.7 146.73 1806.57 144.74C1851.59 142.44 1896.11 133.44 1940.64 126.96" stroke="#141313" stroke-width="3" stroke-miterlimit="10"/>
<path d="M-2.01001 110.55C68.92 141.94 135.82 159.28 213.73 153.64C280.81 148.78 346.09 141.76 413.51 144.33C475.03 146.68 536.75 146.32 598.16 150.5C656.97 154.5 714.2 157.67 772.87 150.06C831.86 142.41 888.7 139.13 948.17 139.41C1002.71 139.67 1057.96 137.11 1112.19 143.67C1169.79 150.64 1224.65 157.31 1282.85 153.94C1344.01 150.39 1405.65 149.79 1466.64 144.74C1542.52 138.47 1617.5 136.87 1693.64 136.25C1731.49 135.94 1770.64 138.54 1808.18 133.15C1853.13 126.7 1896.54 110.66 1940.41 99.46" stroke="#101010" stroke-width="3" stroke-miterlimit="10"/>
<path d="M-1.43005 80.65C65.3399 123.51 130.19 147.54 210.07 138.91C279.06 131.46 343.74 119.3 413.34 127.52C475.09 134.81 536.69 136.94 598.45 143.16C658.78 149.24 714.49 153.45 774.5 142.06C802.6 136.73 830.59 130.14 859.08 127.14C887.93 124.11 917.24 125.51 946.21 125.71C1001.72 126.1 1058.38 122.75 1113.17 132.81C1173.5 143.89 1227.33 153.38 1288.95 147.68C1348.24 142.2 1408.31 141.14 1467.29 133.74C1501.45 129.45 1535.42 123.36 1569.91 122.38C1608.95 121.27 1648.22 123.61 1687.24 124.83C1728.03 126.1 1770.97 130.92 1810.89 120.37C1855.43 108.6 1896.93 85.74 1940.15 69.98" stroke="#0C0C0C" stroke-width="3" stroke-miterlimit="10"/>
<path d="M-0.880005 51.99C60.51 103.89 123.59 136.25 205.35 124.78C241 119.78 276.11 111.47 311.81 106.78C347.73 102.06 380.95 104.84 416.37 111.79C445.52 117.51 474.39 124.86 504.01 127.87C534.59 130.98 565.18 131.3 595.75 135.33C623.89 139.04 651.98 143.59 680.34 145.33C713.61 147.38 745.01 141.58 777.21 133.64C806.48 126.42 835.64 117.71 865.62 113.86C893.15 110.32 921.36 112.05 949.05 112.32C1003.76 112.84 1059.78 108.96 1113.29 121.9C1140.47 128.47 1167.09 137.3 1194.65 142.28C1225.92 147.92 1256.56 145.55 1287.91 141.76C1316.43 138.31 1344.78 133.52 1373.42 131.04C1404.15 128.38 1434.54 128.33 1465.09 123.25C1499.49 117.53 1533.69 109.29 1568.66 107.9C1608.63 106.31 1649.13 110.97 1688.98 113.65C1728.61 116.32 1770.32 122.54 1808.54 108.96C1854.62 92.59 1895.51 62.12 1939.93 41.75" stroke="#080808" stroke-width="3" stroke-miterlimit="10"/>
<path d="M-0.459961 27.86C58.55 88.68 119.89 126.07 206.4 111.15C241.39 105.11 275.75 95.75 310.85 90.3C346.13 84.82 377.73 87.51 412.24 96.19C442.08 103.7 471.38 113.89 501.96 118.15C534.57 122.69 567.45 122.86 600.12 128.07C627.18 132.38 654.16 137.43 681.52 139.39C714.09 141.73 744.38 135.04 775.55 126.12C805.85 117.46 835.87 106.67 867.11 101.84C896.15 97.35 926.32 99.63 955.61 99.98C1008.01 100.61 1061.77 96.43 1112.59 111.07C1140.27 119.04 1167.16 129.92 1195.39 135.9C1225.44 142.26 1255.01 139.74 1285.17 135.44C1314.25 131.3 1343.09 125.45 1372.32 122.36C1403.55 119.06 1434.3 119.11 1465.24 112.91C1499.78 105.99 1533.99 95.95 1569.39 94.55C1610.16 92.94 1651.57 99.39 1692.06 103.29C1730.06 106.96 1770.67 114.25 1806.94 98.86C1854.18 78.82 1894.14 41.9 1939.65 18.02" stroke="#040404" stroke-width="3" stroke-miterlimit="10"/>
<path d="M-0.280029 11.57C53.95 74.96 112.76 116.27 198.91 101.46C272.53 88.8 337.63 62.62 412.3 84.14C441.41 92.53 469.82 104.12 499.89 108.83C531.61 113.79 563.74 113.19 595.6 118.7C623.53 123.52 651.35 129.56 679.65 131.77C713.39 134.41 744.29 127.51 776.35 117.48C806.09 108.17 835.55 96.51 866.41 91.33C894.7 86.59 924.2 88.88 952.79 89.25C1006.16 89.95 1061.94 84.88 1113.35 101.22C1140.3 109.79 1166.31 121.53 1193.92 127.96C1224.62 135.11 1255.14 132.36 1285.98 127.52C1314.32 123.08 1342.37 116.68 1370.89 113.39C1402.96 109.69 1434.35 110.24 1466.09 103.16C1501.28 95.32 1535.87 84.19 1572.21 83.2C1610.3 82.16 1648.75 88.52 1686.47 92.92C1726.28 97.57 1771.53 106.96 1809.14 88.87C1855.75 66.45 1893.89 27.18 1939.39 2" stroke="black" stroke-width="3" stroke-miterlimit="10"/>
</g>
</svg>
