<?xml version="1.0" encoding="UTF-8"?>
<svg id="Layer_2" data-name="Layer 2" xmlns="http://www.w3.org/2000/svg" viewBox="0 0 110 110">
  <defs>
    <style>
      .cls-1 {
        fill: none;
        stroke: #b5d335;
        stroke-miterlimit: 10;
      }

      .cls-2 {
        fill: #b5d336;
        stroke-width: 0px;
      }
    </style>
  </defs>
  <g id="Icon_About" data-name="Icon About">
    <g>
      <circle class="cls-1" cx="55" cy="55" r="51"/>
      <circle class="cls-1" cx="55" cy="55" r="54.5"/>
    </g>
  </g>
  <g id="Layer_10" data-name="Layer 10">
    <path class="cls-2" d="M49.25,68.81c-1.31-.22-2.52-.38-3.71-.62-3.5-.7-6.79-1.89-9.56-4.22-3.36-2.82-5.01-6.57-5.69-10.8-.41-2.59-.6-5.2-.19-7.82.47-3.03,1.72-5.7,3.73-8,.32-.37.42-.66.25-1.16-1.17-3.43-.78-6.8.48-10.11.1-.25.69-.51.99-.46,1.55.28,3.17.48,4.61,1.07,1.98.82,3.81,1.98,5.72,2.96.33.17.79.26,1.13.18,6.69-1.63,13.37-1.64,20.05.03.48.12.82.05,1.22-.21,2.64-1.71,5.38-3.19,8.5-3.85,2.4-.51,2.71-.31,3.32,2.06.73,2.86.79,5.7-.1,8.55-.07.22.03.58.18.76,3.21,3.69,4.33,8.02,3.98,12.82-.2,2.72-.61,5.39-1.66,7.93-2.02,4.9-5.75,7.89-10.72,9.38-2.21.67-4.51,1.05-6.81,1.57,0-.09-.03,0,0,.04,1.92,1.99,2.57,4.47,2.6,7.13.05,3.82,0,7.65,0,11.47,0,1.43.2,1.73,1.49,2.39-8.08.08-16.15.15-24.23.23,1.58-.37,1.73-1.55,1.7-2.87-.04-2.05,0-4.11,0-6.24-1,.13-1.85.28-2.71.36-2.48.23-4.89,0-7.15-1.13-2.11-1.06-3.64-2.68-4.54-4.89-1.06-2.61-2.55-4.9-5.05-6.39-.33-.2-.65-.46-.9-.75-.21-.24-.49-.65-.4-.86.1-.27.53-.55.83-.57.77-.05,1.57-.09,2.31.09,2.42.59,4.11,2.18,5.4,4.24,1.21,1.93,2.75,3.44,5,4.08,2.4.68,4.7.27,6.95-.65.13-.05.3-.21.32-.34.3-2.04,1.13-3.83,2.66-5.37Z"/>
  </g>
</svg>