<?xml version="1.0" encoding="UTF-8"?>
<svg id="Layer_2" data-name="Layer 2" xmlns="http://www.w3.org/2000/svg" viewBox="0 0 46 46">
  <defs>
    <style>
      .cls-1 {
        fill: none;
        stroke: #b5d335;
        stroke-miterlimit: 10;
      }

      .cls-2 {
        fill: #b5d335;
      }

      .cls-2, .cls-3 {
        stroke-width: 0px;
      }

      .cls-3 {
        fill: #fff;
      }
    </style>
  </defs>
  <g id="Icon_Insights" data-name="Icon Insights">
    <g>
      <g>
        <path class="cls-2" d="M9.74,20.04c.12-.24.21-.49.36-.71.22-.32.55-.5.94-.54.22-.02.31-.12.37-.33.3-1.12.77-2.17,1.38-3.16.17-.28.37-.34.6-.18.2.14.21.33.08.59-.38.77-.75,1.55-1.1,2.33-.13.29-.19.6-.27.86.2.22.37.42.55.59.05.05.15.07.22.06,1.49-.3,3-.46,4.52-.49.09,0,.21-.07.26-.15.39-.56.91-.83,1.6-.74.15.02.25,0,.35-.14.72-.98,1.54-1.86,2.45-2.66.11-.1.13-.18.09-.33-.07-.3-.09-.62-.14-1.01-1.16-.69-2.47-1.26-3.88-1.67-.23.41-.57.7-1.04.81-.46.11-.89.03-1.31-.25-.36.37-.72.75-1.08,1.12-.22.22-.56.18-.65-.1-.04-.13,0-.34.09-.44.31-.36.65-.69.99-1.02.11-.11.15-.19.09-.35-.23-.7.02-1.39.62-1.79.6-.4,1.31-.37,1.89.11.11.09.19.11.32.04,1.79-.89,3.68-1.3,5.67-1.29,1.85.01,3.63.41,5.3,1.21.13.06.22.1.37-.01.54-.43,1.22-.45,1.79-.08.58.37.86,1.02.69,1.7-.04.16-.01.26.11.35.05.03.1.07.14.12.3.37.63.5,1.14.39.58-.13,1.07.2,1.4.7.35.53.38,1.09.05,1.63-.14.22-.1.35,0,.55.89,1.59,1.4,3.29,1.54,5.11.3,4.14-1.08,7.64-4.08,10.49-.11.1-.12.18-.08.31.21.7-.03,1.38-.61,1.78-.58.4-1.29.38-1.85-.07-.13-.1-.21-.1-.34-.03-2.17,1.09-4.47,1.5-6.88,1.28-1.55-.14-3.03-.55-4.42-1.27-.15-.08-.25-.08-.39.02-.55.38-1.22.37-1.77-.01-.54-.38-.8-1.01-.63-1.65.05-.18-.02-.27-.14-.37-2.19-2.05-3.51-4.56-3.98-7.51-.09-.59-.09-1.19-.14-1.78,0-.08-.05-.2-.11-.22-.57-.21-.89-.63-1.06-1.18,0-.21,0-.41,0-.62ZM20.55,20.01c-.13.49-.37.83-.76,1.07-.4.24-.83.26-1.3.17-.26.64-.53,1.25-.75,1.88-.83,2.33-1.11,4.72-.9,7.18,0,.08.07.21.12.22.45.1.8.35,1.06.72.14-.06.26-.1.38-.15,3.96-1.52,7.27-3.95,9.94-7.25.09-.11.08-.18.04-.32-.09-.29-.17-.59-.19-.89-.01-.2-.04-.32-.24-.41-1.73-.84-3.53-1.47-5.41-1.87-.66-.14-1.32-.24-2-.36ZM31.51,30.87s.03-.01.05-.02c1.18-1.07,2.12-2.34,2.81-3.78.07-.15,0-.22-.08-.31-.98-.99-2.05-1.87-3.19-2.68-.21-.15-.35-.18-.48.02.13.69.26,1.36.39,2.03.04.21-.03.37-.24.46-.28.11-.49-.05-.55-.39-.11-.61-.24-1.23-.36-1.82-.22-.04-.4-.04-.56-.1-.19-.08-.27,0-.38.13-2.7,3.33-6.04,5.79-10.03,7.35-.4.16-.73.3-.7.8,0,.02,0,.03,0,.05.01.01.02.03.04.03.08.04.15.08.23.12,2.04.97,4.19,1.34,6.44,1.09,1.38-.15,2.68-.54,3.93-1.14.16-.08.2-.16.19-.33-.01-.21,0-.44.05-.64.18-.63.62-.99,1.27-1.15.03-.66.05-1.32.07-1.97.01-.33.13-.49.4-.49.26,0,.39.15.38.47-.01.55,0,1.11-.07,1.65-.04.34.07.51.36.61,0,0,.02,0,.03,0ZM17.31,19.81c-1.44.17-2.93.34-4.43.51-.03.83-.45,1.31-1.21,1.57.2,3.51,1.46,6.53,3.95,8.98.39-.11.47-.32.44-.65-.16-1.77-.04-3.53.35-5.27.3-1.36.75-2.67,1.35-3.92.04-.08.07-.19.03-.26-.13-.29-.29-.58-.48-.95ZM30.18,21.23c1-1.66,1.78-3.42,2.33-5.26.02-.06-.05-.19-.11-.24-.35-.28-.57-.63-.63-1.06-.06-.4.03-.79.26-1.14-.24-.23-.47-.44-.7-.65-.41.3-.84.42-1.32.33-.48-.1-.84-.38-1.09-.79-1.3.39-2.51.91-3.66,1.59-.07.04-.11.17-.12.26-.04.25-.02.52-.08.76-.05.17-.01.26.11.37,1.72,1.53,3.1,3.33,4.13,5.39.13.27.25.48.6.4.08-.02.17.02.28.04ZM34.79,26.06c1.18-3.49.89-6.87-.9-10.13-.12.03-.2.06-.27.06-.24,0-.33.12-.4.34-.22.67-.43,1.35-.72,1.99-.48,1.06-1.02,2.08-1.53,3.13-.04.08-.07.22-.03.27.37.46.44.97.34,1.46,1.19.98,2.34,1.92,3.52,2.89ZM20.14,18.6c.09.15.2.28.26.43.06.16.17.21.33.23.83.14,1.67.26,2.49.45,1.8.41,3.53,1.04,5.19,1.86.08.04.19,0,.29,0,0-.09.02-.2-.01-.27-.15-.32-.32-.63-.49-.94-.93-1.66-2.12-3.12-3.54-4.39-.08-.08-.15-.18-.31-.09-.5.27-1,.26-1.51.01-.06-.03-.18-.03-.22.01-.93.81-1.76,1.71-2.48,2.7ZM22.45,13.4c.73-.62,1.58-.61,2.3,0,1.14-.67,2.34-1.21,3.59-1.62.4-.13.4-.13.44-.57-.12-.06-.24-.12-.37-.18-1.95-.86-3.99-1.17-6.11-.94-1.37.14-2.67.51-3.9,1.12-.07.04-.17.15-.16.21.01.09.1.21.18.23,1.41.42,2.75,1.01,4.03,1.76ZM33.34,15.23c.43,0,.77-.36.76-.81,0-.43-.35-.77-.78-.77-.46,0-.8.35-.79.81.01.45.35.77.8.77ZM12.08,20.34c0-.46-.32-.79-.77-.8-.43,0-.79.35-.79.78,0,.43.36.8.78.8.45,0,.78-.33.78-.79ZM31.1,11.65c0-.44-.35-.79-.79-.78-.42,0-.77.36-.78.77,0,.46.34.8.8.8.45,0,.77-.33.77-.79ZM30.52,22.75c0-.45-.34-.79-.78-.79-.42,0-.78.37-.78.8,0,.43.37.8.79.79.44-.01.78-.35.77-.8ZM17.47,11.65c0-.45-.34-.79-.78-.78-.44,0-.78.35-.78.79,0,.43.36.79.79.79.44,0,.78-.35.78-.79ZM30.58,31.38c-.46,0-.79.32-.79.77,0,.44.33.8.77.8.44,0,.79-.34.79-.78,0-.45-.32-.79-.77-.79ZM18.97,20.51c.46,0,.81-.33.81-.79,0-.42-.35-.78-.77-.78-.44,0-.8.33-.81.76,0,.45.32.8.76.81ZM17.47,32.09c0-.43-.37-.8-.79-.8-.42,0-.78.37-.78.8,0,.43.37.8.79.79.43,0,.78-.36.78-.8ZM24.37,14.5c0-.45-.34-.78-.79-.78-.42,0-.79.38-.78.8,0,.43.37.79.8.78.45,0,.77-.34.77-.8Z"/>
        <path class="cls-3" d="M33.34,15.23c-.45,0-.79-.32-.8-.77-.01-.46.33-.81.79-.81.43,0,.77.34.78.77,0,.45-.33.8-.76.81Z"/>
        <path class="cls-3" d="M12.08,20.34c0,.45-.33.79-.78.79-.42,0-.78-.37-.78-.8,0-.43.37-.79.79-.78.45,0,.77.34.77.8Z"/>
        <path class="cls-3" d="M31.1,11.65c0,.46-.32.79-.77.79-.46,0-.8-.34-.8-.8,0-.42.36-.77.78-.77.44,0,.79.34.79.78Z"/>
        <path class="cls-3" d="M30.52,22.75c0,.45-.33.79-.77.8-.42,0-.79-.36-.79-.79,0-.43.36-.81.78-.8.44,0,.78.35.78.79Z"/>
        <path class="cls-3" d="M17.47,11.65c0,.44-.34.79-.78.79-.44,0-.79-.35-.79-.79,0-.44.34-.79.78-.79.45,0,.78.33.78.78Z"/>
        <path class="cls-3" d="M30.58,31.38c.45,0,.78.34.77.79,0,.43-.36.78-.79.78-.44,0-.78-.36-.77-.8,0-.45.34-.78.79-.77Z"/>
        <path class="cls-3" d="M18.97,20.51c-.44,0-.77-.36-.76-.81,0-.43.37-.77.81-.76.42,0,.77.37.77.78,0,.45-.36.8-.81.79Z"/>
        <path class="cls-3" d="M17.47,32.09c0,.44-.35.8-.78.8-.42,0-.79-.37-.79-.79,0-.43.36-.8.78-.8.42,0,.79.37.79.8Z"/>
        <path class="cls-3" d="M24.37,14.5c0,.46-.31.79-.77.8-.43,0-.79-.34-.8-.78,0-.42.36-.8.78-.8.45,0,.78.33.79.78Z"/>
      </g>
      <circle class="cls-1" cx="23" cy="23" r="21.06"/>
      <circle class="cls-1" cx="23" cy="23" r="22.5"/>
    </g>
  </g>
</svg>