<?xml version="1.0" encoding="UTF-8"?>
<svg id="Layer_2" data-name="Layer 2" xmlns="http://www.w3.org/2000/svg" viewBox="0 0 110 110">
  <defs>
    <style>
      .cls-1 {
        fill: none;
        stroke: #b5d335;
        stroke-miterlimit: 10;
      }

      .cls-2 {
        fill: #b5d336;
        stroke-width: 0px;
      }
    </style>
  </defs>
  <g id="Icon_About" data-name="Icon About">
    <g>
      <circle class="cls-1" cx="55" cy="55" r="51"/>
      <circle class="cls-1" cx="55" cy="55" r="54.5"/>
    </g>
  </g>
  <g id="Layer_10" data-name="Layer 10">
    <g>
      <path class="cls-2" d="M24.56,54.88c0-4.3-.13-8.61.03-12.91.21-5.89,2.16-11.01,7.28-14.46,3.12-2.11,6.66-2.94,10.35-2.98,8.5-.09,17.01-.13,25.51,0,5.55.09,10.5,1.82,14.06,6.43,2.06,2.66,3.27,5.72,3.37,9.02.24,8.25.28,16.51.32,24.77.02,3.01-.12,6.04-1.07,8.95-2.07,6.39-6.5,10.29-13.06,11.15-5.03.66-10.17.6-15.26.68-4.68.07-9.37-.02-14.05-.2-5.52-.22-10.41-1.93-13.92-6.52-2.48-3.25-3.41-7.03-3.52-11.01-.12-4.3-.03-8.61-.03-12.91ZM54.93,29.65c-4.76.16-9.55.23-14.33.52-5.18.31-8.9,3.41-9.99,8.47-.53,2.45-.66,5.02-.66,7.54,0,7.7.02,15.41.3,23.1.19,5.23,3.4,8.93,8.53,10.04,2.38.52,4.88.63,7.33.63,7.73,0,15.47-.02,23.2-.29,5.22-.18,8.96-3.41,10.06-8.51.53-2.45.65-5.02.65-7.54,0-7.63,0-15.27-.29-22.89-.24-6.08-4.45-10.18-10.52-10.56-4.74-.29-9.5-.35-14.27-.51Z"/>
      <path class="cls-2" d="M70.66,54.98c-.02,8.71-6.99,15.64-15.7,15.63-8.75-.01-15.7-7.02-15.65-15.78.05-8.71,7.03-15.61,15.75-15.57,8.71.04,15.62,7,15.6,15.73ZM54.93,65.13c5.66.01,10.23-4.49,10.25-10.1.02-5.73-4.48-10.3-10.15-10.31-5.66-.01-10.23,4.49-10.25,10.1-.02,5.72,4.48,10.3,10.15,10.31Z"/>
      <path class="cls-2" d="M71.35,42.23c-2.01.01-3.65-1.6-3.67-3.6-.02-2.05,1.64-3.72,3.68-3.71,1.99.01,3.63,1.67,3.63,3.66,0,1.99-1.64,3.64-3.64,3.65Z"/>
    </g>
  </g>
</svg>