<?xml version="1.0" encoding="UTF-8"?>
<svg xmlns="http://www.w3.org/2000/svg" xmlns:xlink="http://www.w3.org/1999/xlink" viewBox="0 0 136.02 136.02">
  <defs>
    <style>
      .cls-1 {
        fill: #555c6f;
      }

      .cls-1, .cls-2, .cls-3, .cls-4, .cls-5, .cls-6, .cls-7, .cls-8, .cls-9, .cls-10, .cls-11, .cls-12, .cls-13, .cls-14, .cls-15, .cls-16, .cls-17, .cls-18, .cls-19 {
        stroke-width: 0px;
      }

      .cls-2 {
        fill: url(#radial-gradient);
      }

      .cls-3 {
        fill: #0a2a42;
      }

      .cls-4 {
        fill: #888a99;
      }

      .cls-5 {
        fill: url(#radial-gradient-2);
      }

      .cls-6 {
        fill: url(#radial-gradient-3);
      }

      .cls-7 {
        fill: url(#radial-gradient-4);
      }

      .cls-8 {
        fill: url(#radial-gradient-6);
      }

      .cls-9 {
        fill: url(#radial-gradient-9);
      }

      .cls-10 {
        fill: url(#radial-gradient-8);
      }

      .cls-11 {
        fill: url(#radial-gradient-5);
      }

      .cls-12 {
        fill: url(#radial-gradient-7);
      }

      .cls-13 {
        fill: #3e4a5e;
      }

      .cls-20 {
        mix-blend-mode: screen;
      }

      .cls-14 {
        fill: #e6e7e8;
      }

      .cls-15 {
        fill: #a6a7b2;
      }

      .cls-21 {
        isolation: isolate;
      }

      .cls-16 {
        fill: #6d7283;
      }

      .cls-17 {
        fill: #c7c8ce;
      }

      .cls-18 {
        fill: #27394f;
      }

      .cls-19 {
        fill: #f1f2f2;
      }
    </style>
    <radialGradient id="radial-gradient" cx="166.14" cy="340.76" fx="166.14" fy="340.76" r="161.38" gradientTransform="translate(31.07 223.41) rotate(-140.64) scale(.42)" gradientUnits="userSpaceOnUse">
      <stop offset="0" stop-color="#000"/>
      <stop offset=".48" stop-color="#231f20"/>
      <stop offset=".67" stop-color="#252122"/>
      <stop offset=".78" stop-color="#2c292a"/>
      <stop offset=".88" stop-color="#393739"/>
      <stop offset=".96" stop-color="#4b4b4c"/>
      <stop offset="1" stop-color="#58595b"/>
    </radialGradient>
    <radialGradient id="radial-gradient-2" cx="166.17" cy="341.6" fx="166.17" fy="341.6" r="156.27" xlink:href="#radial-gradient"/>
    <radialGradient id="radial-gradient-3" cx="166.26" cy="342.44" fx="166.26" fy="342.44" r="151.32" xlink:href="#radial-gradient"/>
    <radialGradient id="radial-gradient-4" cx="166.43" cy="343.28" fx="166.43" fy="343.28" r="146.52" xlink:href="#radial-gradient"/>
    <radialGradient id="radial-gradient-5" cx="166.61" cy="344.09" fx="166.61" fy="344.09" r="141.82" xlink:href="#radial-gradient"/>
    <radialGradient id="radial-gradient-6" cx="166.77" cy="344.91" fx="166.77" fy="344.91" r="137.17" xlink:href="#radial-gradient"/>
    <radialGradient id="radial-gradient-7" cx="166.92" cy="345.74" fx="166.92" fy="345.74" r="132.56" xlink:href="#radial-gradient"/>
    <radialGradient id="radial-gradient-8" cx="167.09" cy="346.58" fx="167.09" fy="346.58" r="128" xlink:href="#radial-gradient"/>
    <radialGradient id="radial-gradient-9" cx="167.26" cy="347.38" fx="167.26" fy="347.38" r="123.49" xlink:href="#radial-gradient"/>
  </defs>
  <g class="cls-21">
    <g id="Layer_2" data-name="Layer 2">
      <g id="Layer_1-2" data-name="Layer 1">
        <g>
          <g>
            <path class="cls-14" d="M17.5,72.58v-23.11h16.42v4.79h-12.1v13.54h12.36v4.79h-16.68ZM19.86,63.1v-4.56h12.89v4.56h-12.89Z"/>
            <path class="cls-14" d="M52.48,72.91c-1.59,0-3.06-.29-4.43-.86-1.37-.57-2.57-1.39-3.61-2.44-1.04-1.06-1.84-2.32-2.42-3.78-.57-1.46-.86-3.1-.86-4.9s.3-3.37.89-4.82c.59-1.45,1.4-2.71,2.42-3.78,1.02-1.07,2.21-1.89,3.58-2.46,1.37-.57,2.83-.86,4.38-.86,1.17,0,2.29.17,3.36.5,1.07.33,2.07.77,2.98,1.3.92.54,1.68,1.13,2.29,1.77l-2.51,4.46c-.49-.51-1.04-.98-1.66-1.42-.62-.44-1.32-.79-2.09-1.06-.78-.26-1.66-.4-2.65-.4-.78,0-1.55.15-2.3.45-.75.3-1.44.73-2.06,1.3s-1.12,1.29-1.49,2.15c-.37.86-.55,1.84-.55,2.94s.2,2.11.59,2.97.92,1.57,1.58,2.15c.66.57,1.41,1,2.25,1.29s1.7.43,2.59.43c1.01,0,1.9-.17,2.67-.51.77-.34,1.45-.75,2.04-1.24.59-.48,1.11-.92,1.57-1.32l2.09,4.36c-.52.53-1.22,1.09-2.1,1.68-.88.59-1.87,1.1-2.98,1.5-1.11.41-2.29.61-3.54.61Z"/>
            <path class="cls-14" d="M68.48,72.58v-23.11h4.44v23.11h-4.44ZM70.2,63.7l.05-5.02h15.58v5.02h-15.63ZM83.48,72.58v-23.11h4.45v23.11h-4.45Z"/>
            <path class="cls-14" d="M107.21,72.91c-1.73,0-3.29-.3-4.71-.91-1.41-.61-2.63-1.45-3.66-2.54-1.03-1.09-1.83-2.36-2.39-3.81s-.85-3.03-.85-4.72.28-3.27.85-4.72,1.37-2.72,2.41-3.81c1.04-1.09,2.26-1.94,3.66-2.54,1.4-.6,2.96-.91,4.67-.91s3.24.3,4.65.91c1.41.61,2.63,1.45,3.66,2.54,1.03,1.09,1.83,2.36,2.39,3.81s.85,3.03.85,4.72-.28,3.27-.85,4.72-1.36,2.72-2.39,3.81c-1.03,1.09-2.25,1.94-3.66,2.54-1.41.6-2.95.91-4.63.91ZM107.19,67.63c1.03,0,1.97-.17,2.84-.51.86-.34,1.61-.81,2.23-1.42.63-.6,1.11-1.31,1.45-2.13.34-.81.51-1.69.51-2.64s-.17-1.83-.51-2.64c-.34-.81-.82-1.52-1.45-2.13-.63-.61-1.37-1.08-2.23-1.42-.86-.34-1.81-.51-2.84-.51s-1.97.17-2.84.51c-.86.34-1.61.81-2.25,1.42-.64.61-1.12,1.32-1.45,2.13-.33.81-.5,1.69-.5,2.64s.17,1.83.5,2.64c.33.81.81,1.52,1.45,2.13.64.61,1.39,1.08,2.25,1.42s1.81.51,2.84.51Z"/>
          </g>
          <g>
            <path class="cls-14" d="M44.47,91.17h1.26c0,.96.23,1.73.7,2.3.45.59,1.06.88,1.82.88s1.37-.22,1.82-.65c.46-.43.7-1.01.7-1.74,0-.66-.27-1.18-.81-1.57-.4-.28-.97-.5-1.71-.67-.98-.22-1.8-.64-2.44-1.24-.73-.7-1.09-1.56-1.09-2.58s.32-1.86.96-2.49,1.5-.94,2.57-.94,1.93.37,2.57,1.11c.64.74.96,1.72.96,2.95h-1.26c-.11-.8-.37-1.44-.78-1.93-.42-.47-.92-.71-1.49-.71-.69,0-1.24.18-1.66.54-.41.36-.61.85-.61,1.47s.24,1.18.71,1.61c.4.38.92.64,1.56.77,1.09.24,1.95.6,2.57,1.09.81.61,1.21,1.42,1.21,2.43,0,1.2-.34,2.16-1.03,2.87-.7.73-1.61,1.09-2.75,1.09s-2.06-.42-2.75-1.26c-.69-.84-1.03-1.95-1.03-3.35Z"/>
            <path class="cls-14" d="M52.43,84.16v-1.42h7.56v1.42h-3.17v11.31h-1.26v-11.31h-3.13Z"/>
            <path class="cls-14" d="M60.78,91.65v-8.92h1.26v8.92c0,.75.26,1.38.78,1.86.49.45,1.07.67,1.74.67s1.25-.22,1.74-.67c.52-.49.78-1.11.78-1.86v-8.92h1.26v8.92c0,1.16-.39,2.11-1.16,2.87-.73.73-1.6,1.09-2.62,1.09s-1.89-.36-2.62-1.09c-.77-.75-1.16-1.71-1.16-2.87Z"/>
            <path class="cls-14" d="M69.92,95.47v-12.73h3.15c1.37,0,2.46.58,3.28,1.74.83,1.16,1.24,2.7,1.24,4.63s-.41,3.47-1.24,4.63c-.82,1.16-1.91,1.74-3.28,1.74h-3.15ZM71.18,94.04h1.89c.98,0,1.77-.45,2.37-1.34.6-.91.89-2.11.89-3.61s-.3-2.69-.89-3.59c-.6-.9-1.39-1.34-2.37-1.34h-1.89v9.88Z"/>
            <path class="cls-14" d="M78.83,95.47v-12.73h1.26v12.73h-1.26Z"/>
            <path class="cls-14" d="M81.34,89.1c0-2,.42-3.6,1.24-4.82.83-1.2,1.93-1.8,3.3-1.8s2.46.6,3.28,1.8c.83,1.21,1.24,2.82,1.24,4.82s-.41,3.54-1.24,4.73c-.82,1.19-1.91,1.78-3.28,1.78s-2.47-.59-3.3-1.78c-.83-1.19-1.24-2.76-1.24-4.73ZM82.6,89.1c0,1.54.3,2.77.9,3.71.6.92,1.39,1.38,2.39,1.38s1.77-.46,2.37-1.38c.6-.94.89-2.17.89-3.71s-.3-2.83-.89-3.77c-.6-.95-1.39-1.42-2.37-1.42s-1.79.47-2.39,1.42c-.6.94-.9,2.19-.9,3.77Z"/>
          </g>
          <g class="cls-20">
            <path class="cls-19" d="M75.92,135.05c-.04-.28.16-.53.43-.56h0c.28-.04.53.16.56.43h0c.04.28-.16.53-.43.56h-.07c-.24,0-.46-.18-.49-.43ZM56.22,134.96c-.27-.05-.45-.3-.4-.58h0c.04-.27.3-.45.58-.4h0c.27.05.45.31.4.58h0c-.04.24-.25.41-.49.41h0s-.06,0-.09,0ZM95.31,129.73c-.11-.25,0-.55.25-.66h0c.25-.12.55,0,.66.25h0c.12.25,0,.54-.25.66h0c-.06.03-.13.04-.2.04h0c-.19,0-.37-.11-.46-.29ZM37.01,128.53c-.24-.13-.34-.43-.22-.68h0c.13-.24.43-.34.68-.21h0c.24.12.34.42.21.67h0c-.09.17-.26.27-.44.27h0c-.08,0-.16-.02-.23-.05ZM112.29,118.94c-.18-.2-.16-.52.04-.7h0c.2-.18.52-.16.7.04h0c.18.21.16.53-.04.71h0c-.1.08-.22.12-.33.12h0c-.14,0-.28-.05-.38-.17ZM20.56,116.7c-.2-.19-.21-.51,0-.7h0c.19-.2.51-.21.7-.01h0c.2.19.2.51.01.7h0c-.1.1-.23.15-.36.15h0c-.12,0-.25-.04-.34-.14ZM125.34,103.64c-.23-.14-.3-.45-.16-.69h0c.14-.23.45-.31.68-.16h0c.24.14.32.45.17.68h0c-.09.16-.26.24-.43.24h0c-.08,0-.17-.02-.26-.07ZM8.32,100.55c-.13-.24-.04-.55.2-.68h0c.24-.13.55-.04.68.2h0c.13.24.04.55-.2.68h0c-.08.04-.16.06-.24.06h0c-.18,0-.35-.09-.44-.26ZM133.28,85.16c-.26-.07-.43-.34-.36-.61h0s0-.04.02-.06h0s0-.04,0-.07h0c.07-.26.34-.43.61-.36h0c.27.07.43.34.36.61h0s-.01.04-.02.06h0s0,.04,0,.07h0c-.06.22-.26.37-.48.37h0s-.09,0-.13-.01ZM1.37,81.52c-.05-.27.12-.53.39-.59h0c.27-.05.54.12.59.39h0c.06.27-.12.54-.39.59h0s-.07.01-.1.01h0c-.23,0-.44-.16-.49-.4ZM134.93,64.56c-.02-.28.19-.51.47-.53h0c.27,0,.51.2.52.47h0c.02.28-.19.52-.47.53h-.02c-.27,0-.49-.21-.5-.47ZM.8,61.83c-.27-.02-.48-.27-.45-.54H.35c.03-.28.27-.48.55-.45h0c.27.03.48.27.45.55h0c-.03.25-.25.45-.5.45h0s-.03-.01-.05-.01ZM130.93,45.01c-.1-.27.04-.55.3-.65h0c.26-.09.54.04.64.3h0c.09.26-.04.55-.3.64h0s-.11.03-.17.03h0c-.21,0-.4-.12-.47-.32ZM5.61,42.3c-.26-.11-.38-.4-.27-.65h0c.1-.26.4-.38.65-.27h0c.26.11.38.4.27.65h0c-.08.19-.27.31-.46.31h0c-.07,0-.13-.01-.19-.04ZM121.35,27.49c-.16-.22-.12-.54.1-.7h0c.22-.17.53-.13.7.09h0c.17.22.13.54-.09.7h0c-.1.07-.2.11-.31.11h0c-.15,0-.3-.07-.4-.2ZM15.95,25.05c-.22-.18-.24-.5-.07-.71h0c.18-.21.5-.24.71-.06h0c.21.18.24.49.06.71h0c-.1.11-.24.17-.38.17h0c-.12,0-.23-.03-.32-.11ZM107.06,13.55c-.23-.15-.28-.47-.12-.69h0c.16-.23.47-.28.7-.12h0c.22.16.27.47.11.7h0c-.1.14-.25.21-.4.21h0c-.11,0-.21-.03-.29-.1ZM30.93,11.63c-.15-.24-.09-.55.14-.7h0c.24-.15.54-.08.69.15h0c.16.23.09.54-.14.69h0c-.09.06-.18.08-.27.08h0c-.17,0-.33-.08-.42-.22ZM89.27,4.48c-.26-.08-.4-.37-.32-.63h0c.09-.26.37-.4.63-.32h0c.27.09.41.37.32.64h0c-.07.21-.26.34-.47.34h0s-.11,0-.16-.03ZM49.18,3.19c-.07-.27.08-.54.35-.62h0c.26-.07.54.08.61.35h0c.08.26-.07.54-.34.61h0c-.05.02-.09.02-.14.02h0c-.21,0-.42-.14-.48-.36ZM69.6,1.03h0c-.27,0-.49-.24-.48-.52h0c0-.27.23-.49.51-.48h0c.27.01.49.23.48.51h0c0,.27-.22.49-.49.49h-.02Z"/>
            <path class="cls-17" d="M74.38,133.2c-.03-.28.18-.52.45-.54h0c.27-.02.51.18.53.46h0c.02.28-.18.52-.46.54h-.04c-.26,0-.47-.2-.49-.46ZM54.72,132.36c-.27-.05-.45-.32-.39-.59h0c.06-.27.32-.44.59-.39h0c.27.06.45.32.39.59h0c-.05.24-.26.4-.49.4h0s-.07,0-.1,0ZM93.97,128.84c-.1-.26.02-.55.28-.65h0c.26-.11.55,0,.65.27h0c.11.26-.02.55-.27.65h0c-.07.03-.13.04-.19.04h0c-.2,0-.39-.12-.47-.31ZM35.95,124.84h0c-.23-.15-.3-.46-.15-.69h0c.15-.23.46-.3.69-.15h0c.23.15.3.45.15.69h0c-.09.15-.26.23-.42.23h0c-.09,0-.19-.03-.27-.08ZM111.06,118.33c-.19-.21-.17-.53.04-.71h0c.2-.18.52-.17.7.04h0c.18.2.17.52-.04.71h0c-.09.08-.21.12-.33.12h0c-.14,0-.28-.05-.37-.16ZM20.93,111.29c-.18-.21-.15-.52.07-.7h0c.21-.17.53-.14.7.07h0c.18.21.14.53-.07.7h0c-.09.08-.2.12-.32.12h0c-.14,0-.28-.07-.38-.19ZM123.98,102.95c-.24-.15-.31-.45-.17-.69h0c.14-.24.45-.31.69-.17h0c.23.14.31.45.16.69h0c-.09.15-.25.24-.42.24h0c-.09,0-.18-.02-.26-.07ZM10.01,94.26h0c-.12-.24-.02-.54.22-.67h0c.25-.12.55-.02.67.23h0c.13.24.03.54-.22.67h0c-.07.03-.15.05-.22.05h0c-.19,0-.36-.1-.45-.28ZM131.79,84.45c-.27-.06-.43-.33-.37-.6h0c.07-.27.33-.44.6-.37h0c.27.06.44.33.37.6h0c-.06.23-.26.39-.49.39h0s-.08,0-.12-.02ZM3.31,75.17c-.05-.27.13-.53.4-.58h0c.27-.06.53.12.59.39h0c.05.27-.13.54-.4.59h0s-.06,0-.1,0h0c-.23,0-.44-.17-.49-.41ZM131.89,64.05h0c-.05-.27.13-.53.4-.58h0c.27-.05.53.13.58.4h0c.05.27-.13.53-.4.58h0s-.06.01-.09.01h0c-.24,0-.44-.17-.49-.41ZM3.43,55.52c-.27-.04-.46-.3-.41-.57h0c.05-.27.3-.46.58-.41h0c.27.05.45.3.41.58h0c-.04.24-.26.41-.49.41h0s-.06,0-.09,0ZM125.3,45.22c-.12-.25-.02-.55.23-.67h0c.25-.13.55-.02.67.22h0c.12.25.02.55-.23.68h0c-.07.03-.14.05-.22.05h0c-.18,0-.36-.11-.45-.28ZM10.11,36.62c-.24-.14-.32-.44-.19-.68h0c.14-.24.45-.33.68-.19h0c.25.14.33.44.19.68h0c-.09.17-.26.26-.43.26h0c-.09,0-.17-.03-.25-.07ZM115.12,27.94c-.16-.23-.11-.54.11-.7h0c.23-.16.54-.11.7.12h0c.16.22.11.53-.12.69h0c-.08.07-.19.1-.29.1h0c-.15,0-.3-.08-.4-.21ZM22.51,20.82c-.19-.2-.18-.52.02-.71h0c.2-.19.52-.18.71.02h0c.19.21.18.52-.03.71h0c-.09.09-.21.13-.34.13h0c-.13,0-.26-.05-.36-.15ZM101.43,13.44c-.22-.17-.26-.48-.1-.7h0c.17-.22.49-.26.71-.09h0c.22.16.26.48.09.7h0c-.1.12-.25.19-.4.19h0c-.1,0-.21-.03-.3-.1ZM38.96,9.29c-.12-.25-.02-.55.23-.67h0c.25-.12.55,0,.67.24h0c.12.25,0,.55-.24.66h0c-.07.04-.14.05-.21.05h0c-.19,0-.37-.1-.45-.28ZM83.48,5.23c-.27-.06-.45-.32-.4-.59h0c.06-.27.32-.45.59-.4h0c.27.06.45.32.4.59h0c-.05.24-.26.4-.49.4h-.1ZM78.75,4.44h0c-.27-.03-.46-.29-.42-.56h0c.03-.28.29-.47.56-.43h0c.27.04.46.29.43.57h0c-.04.25-.25.43-.5.43h0s-.05,0-.07,0ZM58.22,3.68c-.03-.27.17-.52.44-.55h0c.28-.03.52.16.56.44h0c.03.27-.17.52-.44.55h-.06c-.25,0-.47-.18-.5-.44Z"/>
            <path class="cls-15" d="M69.01,131.73c-.28-.01-.5-.24-.49-.52h0c.01-.27.24-.49.51-.48h0c.28,0,.5.23.49.51h0c0,.27-.23.49-.5.49h0ZM88.47,129.09c-.07-.26.09-.54.35-.61h0c.27-.07.54.09.62.35h0c.07.27-.09.55-.36.62h0s-.08.01-.13.01h0c-.22,0-.42-.14-.48-.37ZM49.06,128.54h0c-.27-.09-.41-.37-.32-.64h0c.09-.26.37-.4.63-.31h0c.26.09.41.37.32.63h0c-.07.21-.27.34-.48.34h0s-.1,0-.15-.02ZM106.51,120.48c-.17-.22-.13-.53.09-.7h0c.22-.17.53-.13.7.09h0c.17.21.13.53-.09.7h0c-.09.07-.2.1-.31.1h0c-.15,0-.29-.07-.39-.19ZM31.93,117.89c-.2-.2-.21-.51-.01-.71h0c.19-.2.51-.21.7-.02h0c.2.2.21.51.02.71h0c-.1.1-.23.15-.36.15h0c-.13,0-.25-.04-.35-.13ZM120.27,105.9c-.23-.16-.28-.47-.13-.69h0c.16-.23.47-.29.7-.13h0c.23.15.29.46.13.69h0c-.1.14-.25.22-.41.22h0c-.1,0-.2-.03-.29-.09ZM19.5,101.96h0c-.14-.23-.07-.54.16-.69h0c.24-.14.54-.07.69.16h0c.15.24.08.54-.16.69h0c-.08.05-.17.08-.26.08h0c-.17,0-.33-.09-.43-.24ZM129.2,87.95c-.26-.09-.41-.37-.33-.63h0c.08-.26.36-.41.63-.33h0c.26.08.41.36.33.62h0c-.07.22-.26.36-.48.36h0s-.1,0-.15-.02ZM9.78,84.28c-.11-.25,0-.55.25-.67h0c.25-.11.55,0,.66.25h0c.12.25.01.55-.24.66h0c-.07.03-.14.05-.21.05h0c-.19,0-.37-.11-.46-.29ZM129.92,67.74c-.06-.26.11-.53.37-.6h0c.27-.06.54.11.61.37h0c.06.27-.11.54-.38.61h0s-.07.01-.11.01h0c-.23,0-.43-.15-.49-.39ZM4.33,64.84c-.02-.28.18-.52.46-.54h0c.27-.02.51.18.53.46h0c.03.27-.18.51-.46.54h-.03c-.26,0-.48-.2-.5-.46ZM121.72,49.62c-.14-.24-.06-.55.18-.69h0c.24-.14.54-.06.68.18h0c.14.24.06.55-.17.69h0c-.08.04-.17.07-.26.07h0c-.17,0-.34-.09-.43-.25ZM7.63,45.54c-.25-.1-.38-.39-.28-.65h0c.1-.25.39-.38.65-.28h0c.26.1.38.39.28.65h0c-.07.2-.26.32-.46.32h0c-.06,0-.13,0-.19-.04ZM111.62,32.21c-.14-.24-.07-.55.17-.69h0c.24-.14.55-.06.69.17h0c.14.24.06.55-.18.69h0c-.08.05-.16.07-.25.07h0c-.17,0-.34-.09-.43-.24ZM17.98,28.38c-.21-.18-.23-.49-.05-.7h0c.18-.21.49-.24.7-.06h0c.21.18.24.5.06.71h0c-.1.11-.24.17-.38.17h0c-.12,0-.23-.04-.33-.12ZM99.7,16.22c-.2-.19-.21-.51,0-.71h0c.19-.2.51-.2.7,0h0c.2.19.21.51,0,.71h0c-.09.1-.22.15-.35.15h0c-.13,0-.26-.05-.35-.14ZM32.94,15.01c-.15-.23-.09-.54.14-.69h0c.24-.15.55-.09.7.14h0c.15.23.08.54-.15.69h0c-.08.06-.18.09-.27.09h0c-.16,0-.33-.08-.42-.23ZM51.36,7.22c-.06-.27.12-.53.39-.59h0c.27-.05.53.12.59.4h0c.05.27-.12.53-.39.58h0s-.07,0-.1,0h0c-.23,0-.44-.16-.49-.4ZM82.41,7.35c-.27-.03-.47-.28-.43-.56h0c.03-.27.28-.47.56-.43h0c.27.03.46.29.43.56h0c-.03.25-.25.44-.5.44h0s-.04-.01-.06-.01ZM71.86,6.4h0c-.28-.02-.49-.25-.48-.53h0c.02-.27.25-.48.53-.47h0c.28,0,.49.25.47.52h0c-.01.27-.23.48-.5.48h-.02Z"/>
            <path class="cls-4" d="M64.07,129.22c-.28-.03-.48-.28-.45-.55h0c.03-.27.28-.48.55-.45h0c.27.03.47.28.45.55h0c-.03.26-.25.45-.5.45h-.05ZM83.66,128.37c-.04-.27.14-.53.41-.57h0c.28-.04.53.14.58.41h0c.04.28-.15.53-.42.58h-.08c-.24,0-.45-.17-.49-.42ZM44.58,124.09h0c-.24-.14-.33-.44-.2-.68h0c.13-.25.44-.34.68-.2h0c.24.13.33.43.2.68h0c-.09.16-.26.26-.44.26h0c-.08,0-.17-.02-.24-.06ZM102.51,121.84c-.15-.24-.09-.55.15-.7h0c.23-.15.54-.08.69.15h0c.15.23.08.54-.15.69h0c-.08.06-.18.08-.27.08h0c-.16,0-.32-.08-.42-.22ZM29.95,110.25c-.16-.23-.11-.54.11-.7h0c.23-.16.54-.11.7.12h0c.16.22.11.53-.12.69h0c-.08.07-.18.1-.29.1h0c-.15,0-.31-.08-.4-.21ZM116.99,108.04c-.22-.16-.26-.48-.1-.7h0c.16-.22.48-.26.7-.1h0c.22.17.27.48.1.7h0c-.1.13-.25.2-.4.2h0c-.1,0-.21-.03-.3-.1ZM19.39,93.11c-.15-.24-.07-.55.17-.69h0c.23-.14.54-.06.68.18h0c.15.23.07.54-.17.68h0c-.08.05-.17.07-.25.07h0c-.17,0-.34-.08-.43-.24ZM126.73,90.54c-.26-.1-.39-.38-.3-.64h0c.1-.26.39-.39.65-.3h0c.25.09.39.38.29.64h0c-.07.2-.26.33-.47.33h0s-.11,0-.17-.03ZM9.54,75.54c-.11-.25.01-.55.26-.66h0c.25-.11.54,0,.66.26h0c.11.25,0,.55-.26.66h0c-.07.02-.13.04-.2.04h0c-.19,0-.38-.11-.46-.3ZM128.46,70.54c-.07-.27.09-.54.35-.61h0c.27-.08.54.08.61.35h0c.08.27-.08.54-.35.61h0s-.08.02-.13.02h0c-.22,0-.42-.15-.48-.37ZM6.55,56.28c-.28-.03-.48-.28-.45-.55h0c.03-.28.27-.48.55-.45h0c.28.03.47.28.44.55h0c-.02.26-.24.45-.49.45h-.05ZM118.41,53.52h0c-.17-.22-.13-.53.09-.7h0c.22-.16.54-.12.7.1h.01c.16.22.12.53-.1.7h0c-.09.07-.2.1-.3.1h0c-.15,0-.3-.07-.4-.2ZM13.43,37.6c-.24-.15-.3-.46-.15-.69h0c.15-.24.46-.3.69-.15h0c.23.15.3.45.15.69h0c-.1.15-.26.23-.42.23h0c-.09,0-.19-.03-.27-.08ZM107.8,36.4c-.13-.25-.03-.55.21-.68h0c.25-.12.55-.03.68.22h0c.12.24.02.54-.22.67h0c-.07.04-.15.06-.23.06h0c-.18,0-.35-.1-.44-.27ZM26.5,22.42c-.18-.21-.15-.53.05-.71h0c.21-.18.53-.16.71.05h0c.18.21.16.53-.05.71h0c-.09.08-.21.12-.33.12h0c-.14,0-.28-.06-.38-.17ZM97.69,19.16h0c-.17-.22-.13-.53.09-.7h0c.22-.17.53-.13.7.08h0c.17.22.13.54-.09.71h0c-.09.07-.2.1-.3.1h0c-.15,0-.3-.06-.4-.19ZM43.4,11.72c-.1-.26.04-.54.3-.63h0c.26-.1.54.04.64.3h0c.09.26-.04.54-.31.64h0c-.05.02-.11.03-.16.03h0c-.21,0-.4-.13-.47-.34ZM81.34,9.48c-.27-.02-.48-.25-.47-.53h0c.02-.27.25-.49.53-.47h0c.27,0,.48.25.47.52h0c0,.27-.24.48-.5.48h-.03ZM63.12,8.43c0-.28.22-.5.49-.51h0c.28,0,.51.21.51.49h0c0,.28-.21.51-.49.51h0c-.27,0-.49-.22-.5-.49Z"/>
            <path class="cls-16" d="M79.81,126.94c-.02-.27.18-.51.46-.53h0c.27-.02.51.18.53.46h0c.02.28-.18.52-.46.53h0s-.02,0-.04,0h0c-.26,0-.48-.2-.49-.47ZM60.23,126.45c-.27-.04-.46-.3-.42-.57h0c.05-.27.3-.46.58-.41h0c.27.04.46.3.41.57h0c-.04.25-.25.42-.49.42h0s-.05,0-.08-.01ZM99.2,122.31c-.13-.24-.03-.54.22-.67h0c.24-.12.55-.03.67.22h0c.13.25.03.55-.22.67h0c-.07.04-.15.06-.23.06h0c-.18,0-.35-.1-.44-.28ZM41.65,119.02c-.21-.18-.23-.5-.05-.7h0c.18-.21.5-.23.7-.05h0c.21.18.23.5.05.7h0c-.1.12-.24.17-.38.17h0c-.11,0-.23-.04-.32-.12ZM114.3,109.33c-.22-.17-.26-.48-.09-.7h0c.17-.22.49-.26.7-.08h0c.22.17.26.48.09.7h0c-.1.12-.25.19-.39.19h0c-.11,0-.22-.04-.31-.11ZM29.84,102.71c-.13-.24-.04-.54.2-.67h0c.25-.14.55-.05.68.19h0c.14.25.05.55-.2.68h0c-.07.05-.15.07-.24.07h0c-.17,0-.34-.1-.44-.27ZM124.52,92.13c-.26-.1-.38-.39-.28-.65h0c.11-.26.4-.38.66-.27h0c.25.1.38.39.27.65h0c-.08.19-.27.31-.46.31h0c-.07,0-.13-.01-.19-.04ZM19.61,85.54c-.16-.23-.1-.54.13-.7h0c.22-.15.53-.1.69.13h0c.16.22.11.54-.12.69h0c-.09.06-.19.09-.29.09h0c-.15,0-.31-.07-.41-.21ZM127.22,72.29h0c-.07-.27.09-.54.36-.61h0c.27-.08.54.08.61.35h0c.07.27-.09.54-.35.61h0c-.05.01-.09.02-.13.02h0c-.22,0-.42-.15-.48-.37ZM9.22,68.31c-.09-.26.04-.55.3-.65h0c.26-.09.55.04.64.3h0c.1.26-.03.55-.29.64h0c-.06.02-.12.03-.18.03h0c-.2,0-.39-.12-.47-.32ZM115.35,56.79h0c-.2-.19-.21-.5-.02-.7h0c.2-.2.51-.21.71-.02h0c.2.19.21.51.02.71h0c-.1.1-.23.15-.36.15h0c-.13,0-.25-.04-.35-.14ZM9.59,48.98c-.26-.09-.4-.38-.3-.64h0c.09-.25.38-.39.64-.3h0c.26.1.39.38.3.64h0c-.07.21-.26.33-.47.33h0c-.06,0-.11,0-.17-.03ZM103.71,40.42c-.12-.25-.01-.54.24-.66h0c.25-.11.55,0,.67.25h0c.11.25,0,.55-.25.66h0c-.07.03-.14.05-.21.05h0c-.19,0-.37-.11-.45-.3ZM19.88,31.88c-.21-.18-.23-.49-.05-.7h0c.18-.21.49-.23.7-.05h0c.21.18.23.49.05.7h0c-.1.12-.24.18-.38.18h0c-.11,0-.23-.04-.32-.13ZM95.37,22.22c-.13-.24-.05-.54.19-.68h0c.24-.14.54-.06.68.18h0c.14.24.06.55-.18.68h0c-.08.05-.17.07-.25.07h0c-.18,0-.34-.09-.44-.25ZM34.73,18.46c-.15-.23-.09-.54.14-.69h0c.23-.15.54-.09.69.14h0c.16.23.09.54-.14.69h0c-.08.06-.18.09-.27.09h0c-.16,0-.32-.08-.42-.23ZM53.36,11.63c-.03-.28.16-.53.44-.56h0c.27-.03.52.17.55.44h0c.03.28-.16.52-.44.56h-.05c-.26,0-.47-.19-.5-.44ZM73.89,11.63c-.27-.01-.5-.23-.49-.51h0c0-.27.23-.5.5-.49h0c.28,0,.5.22.5.5h0c0,.28-.23.5-.51.5h0ZM79.77,11.11c0-.28.21-.5.48-.51h0c.28,0,.51.21.52.49h0c0,.27-.21.5-.49.51h0c-.27,0-.5-.22-.5-.49Z"/>
            <path class="cls-1" d="M77.09,125.1c0-.28.22-.5.49-.51h0c.28,0,.51.22.51.5h0c0,.27-.22.5-.49.5h0c-.28,0-.5-.22-.5-.49ZM57.59,123.68c-.27-.05-.45-.32-.39-.59h0c.05-.27.31-.45.58-.39h0c.27.05.45.32.39.59h0c-.04.23-.25.4-.49.4h0s-.06,0-.09-.01ZM96.77,121.97c-.1-.26.02-.55.28-.65h0c.26-.1.55.02.65.28h0c.1.25-.02.55-.28.65h0c-.06.02-.12.03-.18.03h0c-.2,0-.39-.11-.47-.31ZM40.46,113.76c-.16-.22-.11-.53.11-.7h0c.22-.16.53-.11.7.11h0c.16.22.12.53-.11.7h0c-.09.06-.19.1-.29.1h0c-.16,0-.31-.07-.41-.21ZM112.33,109.73c-.22-.17-.25-.49-.08-.7h0c.18-.22.49-.25.71-.08h0c.21.17.25.49.07.7h0c-.1.13-.24.19-.39.19h0c-.11,0-.22-.04-.31-.11ZM31.11,95.98c-.12-.25-.02-.55.23-.67h0c.25-.12.55-.01.67.23h0c.12.25.02.55-.23.67h0c-.07.04-.15.05-.22.05h0c-.19,0-.37-.1-.45-.28ZM122.73,92.66c-.26-.11-.38-.4-.27-.65h0c.11-.26.4-.37.66-.27h0c.25.11.37.41.26.66h0c-.08.19-.27.3-.46.3h0c-.06,0-.13,0-.19-.04ZM19.83,79.7c-.18-.21-.16-.53.04-.71h0c.21-.18.53-.16.71.04h0c.18.21.16.53-.05.71h0c-.09.08-.21.13-.33.13h0c-.13,0-.27-.06-.37-.17ZM125.97,72.92c-.07-.27.09-.54.36-.61h0c.27-.07.54.09.61.36h0c.07.26-.09.54-.36.61h0s-.08.01-.12.01h0c-.22,0-.43-.14-.49-.37ZM9.3,62.65h0c-.05-.27.12-.53.39-.59h0c.27-.06.53.11.59.38h0c.06.27-.11.54-.38.6h0s-.07,0-.11,0h0c-.23,0-.44-.16-.49-.4ZM112.39,59.35c-.23-.16-.29-.47-.13-.7h0c.15-.23.46-.29.69-.13h0c.23.15.29.46.14.69h0c-.1.14-.26.22-.42.22h0c-.09,0-.19-.03-.28-.08ZM99.4,44.24c-.11-.25,0-.54.27-.65h0c.25-.11.55,0,.65.27h0c.11.25,0,.55-.27.65h0c-.06.03-.13.04-.19.04h0c-.2,0-.38-.12-.46-.31ZM13.62,43.85c-.24-.13-.33-.44-.19-.68h0c.14-.24.44-.32.68-.19h0c.24.14.33.45.19.69h0c-.09.16-.26.25-.44.25h0c-.08,0-.17-.02-.24-.07ZM25.97,28.15c-.2-.2-.19-.51,0-.7h0c.2-.2.51-.19.71.01h0c.19.2.18.51-.02.71h0c-.1.09-.22.14-.34.14h0c-.14,0-.27-.06-.36-.16ZM92.74,25.33c-.11-.25.02-.54.27-.65h0c.26-.1.55.02.66.28h0c.1.25-.02.54-.28.65h0c-.06.02-.13.04-.19.04h0c-.2,0-.38-.12-.46-.32ZM42.17,16.56c-.1-.26.03-.55.29-.65h0c.26-.1.54.03.64.29h0c.1.26-.03.54-.29.64h0s-.11.04-.17.04h0c-.21,0-.39-.13-.47-.32ZM61.87,13.7c0-.28.22-.5.5-.5h0c.27,0,.5.22.5.49h0c0,.28-.22.51-.5.51h0c-.28,0-.5-.22-.5-.5ZM78.67,13.27c-.03-.27.17-.52.44-.55h0c.28-.03.52.17.55.45h0c.03.27-.17.52-.44.55h-.05c-.26,0-.47-.19-.5-.45Z"/>
            <path class="cls-13" d="M75.61,123.08c0-.28.24-.5.52-.49h0c.27,0,.49.24.48.52h0c0,.27-.24.49-.51.48h0c-.28-.01-.5-.24-.49-.51ZM95.41,120.99c-.09-.26.06-.54.32-.63h0c.26-.08.54.06.63.32h0c.09.26-.06.55-.32.63h0c-.05.02-.1.03-.16.03h0c-.21,0-.4-.14-.47-.35ZM56.19,121.06c-.27-.06-.44-.32-.38-.59h0c.06-.27.33-.44.6-.38h0c.27.06.44.33.38.6h0c-.06.23-.26.39-.49.39h0s-.08,0-.11-.02ZM111.16,109.2c-.21-.17-.25-.48-.08-.7h0c.17-.21.49-.25.7-.08h0c.22.17.26.49.08.7h0c-.09.13-.24.19-.39.19h0c-.11,0-.22-.03-.31-.11ZM40.87,108.95c-.12-.25-.02-.55.23-.67h0c.25-.12.55-.02.67.23h0c.12.25.02.54-.23.67h0c-.07.03-.14.05-.22.05h0c-.18,0-.36-.1-.45-.28ZM121.43,92.09c-.25-.1-.37-.4-.26-.65h0c.1-.26.4-.38.65-.27h0c.26.11.38.4.27.66h0c-.08.19-.27.3-.47.3h0c-.06,0-.13-.01-.19-.04ZM33.26,90.47c-.13-.25-.03-.55.21-.67h0c.25-.13.55-.03.68.22h0c.12.24.03.54-.22.67h0c-.07.04-.15.05-.23.05h0c-.18,0-.36-.1-.44-.27ZM20.22,75.75c-.21-.19-.23-.5-.04-.71h0c.18-.2.5-.22.7-.04h0c.21.18.23.5.04.71h0c-.09.11-.23.16-.37.16h0c-.12,0-.24-.04-.33-.12ZM124.61,72.41c-.08-.26.06-.54.33-.62h0c.26-.08.54.06.62.32h0c.09.27-.06.55-.32.63h0s-.1.02-.15.02h0c-.22,0-.42-.13-.48-.35ZM109.29,61.23h-.01c-.25-.11-.36-.41-.25-.66h0c.12-.25.41-.37.66-.25h0c.25.11.37.4.26.66h0c-.09.18-.27.29-.46.29h0c-.07,0-.14-.01-.2-.04ZM10.11,58.77c0-.28.21-.51.49-.52h0c.28-.01.51.21.51.48h0c0,.28-.21.51-.48.52h-.02c-.26,0-.49-.21-.5-.48ZM94.91,47.8h0c-.09-.26.04-.55.29-.65h0c.26-.09.55.04.65.29h0c.1.26-.03.55-.29.65h0c-.06.02-.12.03-.18.03h0c-.2,0-.39-.12-.46-.32ZM17.53,40.85c-.23-.16-.28-.47-.12-.7h-.01c.17-.23.48-.28.7-.12h0c.23.16.28.48.12.7h0c-.1.14-.25.21-.41.21h0c-.1,0-.2-.03-.28-.09ZM89.81,28.4c-.07-.27.09-.54.35-.61h0c.27-.07.54.08.62.35h0c.08.27-.08.54-.35.61h0s-.08.02-.13.02h0c-.22,0-.42-.15-.48-.37ZM31,26.12c-.18-.21-.15-.53.06-.71h0c.21-.18.53-.15.7.06h0c.18.21.16.53-.05.71h0c-.1.08-.21.11-.33.11h0c-.14,0-.28-.05-.38-.17ZM48.48,17.03c-.04-.27.15-.53.42-.57h0c.28-.04.53.15.57.42h0c.04.28-.14.53-.42.57h0s-.05.01-.07.01h0c-.25,0-.46-.18-.5-.43ZM68.45,16.31c-.01-.27.2-.5.48-.51h0c.28,0,.51.2.51.48h0c0,.27-.2.51-.48.51h0s0,0-.02,0h0c-.26,0-.49-.22-.49-.49ZM77.57,15.44c-.05-.27.13-.54.39-.59h0c.28-.05.54.12.59.39h0c.06.27-.12.54-.39.59h0s-.06.01-.1.01h0c-.23,0-.44-.16-.49-.4Z"/>
            <path class="cls-18" d="M75.81,121.56c-.27-.01-.48-.25-.47-.52h0c.02-.28.25-.49.53-.48h0c.27.02.49.26.47.53h0c-.02.27-.23.47-.5.47h-.03ZM95.17,119.59c-.08-.26.07-.54.34-.62h0c.27-.08.54.07.62.34h0c.08.26-.07.54-.34.62h0c-.05.01-.09.02-.14.02h0c-.21,0-.41-.14-.48-.36ZM55.99,118.69h0c-.27-.06-.44-.33-.37-.6h0c.06-.27.33-.43.6-.37h0c.26.06.43.33.37.6h0c-.05.23-.26.38-.49.38h0s-.07,0-.11,0ZM110.75,107.76c-.22-.17-.26-.48-.1-.7h0c.17-.22.48-.27.7-.1h0c.22.17.27.48.1.7h0c-.1.13-.25.2-.4.2h0c-.1,0-.21-.03-.3-.1ZM42.41,105.06c-.09-.27.06-.55.32-.63h0c.26-.09.54.05.63.31h0c.08.27-.06.55-.32.64h0s-.1.02-.16.02h0c-.21,0-.4-.13-.47-.34ZM120.61,90.44c-.25-.1-.37-.39-.27-.65h0c.1-.25.39-.38.65-.28h0c.26.11.38.4.27.66h0c-.07.19-.26.31-.46.31h0c-.06,0-.12-.01-.19-.04ZM36.04,86.29c-.14-.23-.06-.54.17-.68h0c.24-.14.55-.06.69.18h0c.14.23.06.54-.17.68h0c-.08.05-.17.07-.26.07h0c-.17,0-.34-.09-.43-.25ZM21.21,73.54c-.23-.15-.29-.47-.13-.69h0c.15-.23.47-.29.69-.13h0c.23.15.29.47.13.69h0c-.1.14-.25.22-.41.22h0c-.1,0-.2-.03-.28-.09ZM122.94,70.87h0c-.12-.24-.02-.54.22-.67h0c.25-.12.55-.02.67.22h0c.13.25.03.55-.22.67h0c-.07.04-.15.06-.22.06h0c-.18,0-.36-.1-.45-.28ZM105.79,62.64c-.26-.07-.42-.34-.35-.61h0c.07-.27.35-.42.61-.35h0c.27.07.43.34.35.61h0c-.05.22-.26.37-.48.37h0s-.09,0-.13-.02ZM11.9,57.41c-.27-.03-.47-.29-.43-.56h0c.03-.27.28-.47.56-.43h0c.27.03.46.29.43.56h0c-.03.25-.25.44-.49.44h0s-.05-.01-.07-.01ZM90.26,51.07c-.09-.26.05-.55.31-.64h0c.26-.09.54.05.63.31h0c.1.26-.04.54-.3.64h0c-.06,0-.11.02-.17.02h0c-.2,0-.4-.13-.47-.33ZM20.61,39.7c-.22-.17-.25-.49-.08-.7h0c.17-.22.48-.26.7-.08h0c.22.17.25.48.08.7h0c-.1.12-.24.19-.39.19h0c-.11,0-.22-.04-.31-.11ZM86.66,31.34c-.05-.27.14-.52.41-.57h0c.28-.04.53.15.57.42h0c.04.28-.14.53-.42.57h0s-.05.01-.07.01h0c-.25,0-.46-.18-.49-.43ZM34.65,25.53c-.17-.21-.13-.53.08-.7h0c.22-.17.53-.13.7.09h0c.17.22.13.53-.08.7h0c-.09.07-.2.11-.31.11h0c-.15,0-.3-.07-.39-.2ZM53.05,18.99c-.01-.27.2-.5.48-.51h0c.28-.01.51.21.51.49h0c.01.27-.21.5-.48.51h-.02c-.27,0-.49-.21-.49-.49ZM72.97,18.39c-.05-.28.13-.53.4-.58h0c.28-.05.54.13.59.4h0c.05.27-.13.53-.4.58h0s-.07,0-.1,0h0c-.23,0-.44-.17-.49-.41ZM76.48,17.6c-.08-.26.07-.54.34-.62h0c.26-.08.54.07.62.34h0c.08.26-.07.54-.34.62h0s-.09.02-.14.02h0c-.22,0-.41-.14-.48-.36Z"/>
            <path class="cls-3" d="M91.44,118.82c-.05-.27.14-.52.41-.57h0c.28-.04.53.15.57.42h0c.05.27-.14.53-.41.57h0s-.05.01-.08.01h0c-.24,0-.45-.18-.49-.43ZM71.99,119.17h0c-.27-.03-.47-.28-.44-.56h0c.03-.27.28-.47.55-.44h0c.27.03.47.28.44.56h0c-.03.25-.25.44-.5.44h-.06ZM52.33,115.26c-.25-.12-.36-.42-.25-.67h0c.12-.25.42-.36.67-.24h0c.25.11.36.41.24.66h0c-.08.18-.26.29-.45.29h0c-.07,0-.14,0-.21-.04ZM108.18,109.15c-.22-.17-.25-.49-.08-.71h0c.17-.21.49-.25.7-.07h0c.22.17.25.48.08.7h0c-.1.12-.24.19-.39.19h0c-.11,0-.22-.04-.31-.11ZM43.74,97.69c-.05-.27.13-.53.41-.58h0c.27-.04.53.14.57.41h0c.05.27-.14.53-.41.58h0s-.05.01-.08.01h0c-.24,0-.45-.18-.49-.42ZM118.44,92.1c-.25-.11-.37-.4-.26-.66h0c.11-.25.41-.37.66-.26h0c.25.11.37.41.26.66h0c-.08.19-.27.3-.46.3h0c-.07,0-.14,0-.2-.04ZM36.44,80.02c-.21-.18-.24-.5-.06-.71h0c.18-.21.5-.23.71-.05h0c.21.18.23.49.05.7h0c-.1.12-.24.18-.38.18h0c-.11,0-.23-.04-.32-.12ZM122.45,72.45s0-.04,0-.06h0v-.04h0c-.04-.27.15-.52.42-.56h0c.27-.04.53.15.57.42h0v.05h0s0,.04,0,.06h0c.04.27-.16.52-.43.56h-.07c-.24,0-.46-.18-.49-.43ZM19.12,70.35c-.23-.15-.29-.46-.14-.69h0c.15-.23.47-.29.7-.14h0c.22.15.29.46.14.69h0c-.1.15-.26.23-.42.23h0c-.1,0-.19-.03-.28-.09ZM106.38,64.39c-.28-.03-.47-.28-.44-.55h0c.04-.28.28-.47.56-.44h0c.27.03.47.29.43.56h0c-.03.25-.24.44-.49.44h0s-.04,0-.06-.01ZM87.5,58.32h0c-.17-.23-.11-.54.11-.7h0c.23-.16.54-.11.7.12h0c.16.22.11.53-.12.7h0c-.09.06-.19.09-.29.09h0c-.15,0-.31-.08-.41-.21ZM14.46,53.08c-.26-.11-.38-.4-.27-.66h0c.11-.25.4-.37.65-.26h0c.26.1.38.4.27.65h0c-.08.19-.27.31-.46.31h0c-.06,0-.13,0-.19-.04ZM83.55,38.71h0c0-.27.2-.51.48-.52h0c.27-.01.51.2.52.48h0c0,.27-.2.51-.48.52h-.02c-.27,0-.49-.21-.5-.48ZM25.6,36.65c-.2-.19-.22-.51-.03-.71h0c.19-.2.5-.22.7-.03h0c.21.19.22.5.04.71h0c-.1.1-.24.16-.37.16h0c-.12,0-.24-.05-.34-.13ZM40.68,23.71c-.12-.25,0-.55.25-.66h0c.25-.12.55,0,.66.25h0c.11.25,0,.55-.25.66h0c-.07.03-.14.04-.21.04h0c-.19,0-.37-.11-.45-.29ZM60.79,22.19c-.28,0-.5-.23-.49-.51h0c0-.27.23-.49.51-.49h0c.27,0,.49.24.49.51h0c-.01.28-.23.49-.5.49h-.01ZM79.97,20.01c-.23-.15-.3-.46-.14-.69h0c.15-.23.46-.29.69-.14h0c.23.15.29.46.14.69h0c-.1.15-.26.23-.42.23h0c-.09,0-.19-.03-.27-.09Z"/>
          </g>
          <g class="cls-20">
            <path class="cls-2" d="M67.88,136.02c-12.47,0-24.73-3.45-35.6-10.17-15.45-9.54-26.26-24.53-30.43-42.21-4.18-17.67-1.22-35.91,8.32-51.36C19.72,16.83,34.7,6.02,52.38,1.85c17.67-4.18,35.91-1.22,51.36,8.32,15.45,9.54,26.26,24.53,30.43,42.21,4.18,17.67,1.22,35.91-8.32,51.36-9.54,15.45-24.53,26.26-42.21,30.43-5.23,1.24-10.52,1.85-15.76,1.85ZM68.14,1c-5.17,0-10.37.6-15.53,1.82-17.41,4.11-32.18,14.76-41.58,29.98C1.62,48.03-1.29,66,2.82,83.41s14.76,32.18,29.98,41.58c15.22,9.4,33.2,12.32,50.61,8.2,17.41-4.11,32.18-14.76,41.58-29.98,9.4-15.22,12.32-33.19,8.2-50.61-4.11-17.41-14.76-32.18-29.99-41.58-10.71-6.62-22.79-10.02-35.08-10.02Z"/>
            <path class="cls-5" d="M68.02,134.02c-12.08,0-24.1-3.29-34.33-9.57-13.23-8.05-23.41-22.15-29.44-40.78-2.49-7.69-.45-15.3,1.53-22.66.49-1.83,1-3.73,1.43-5.59.48-2.07.88-4.24,1.27-6.34,1.21-6.52,2.46-13.27,6.18-18.73h0C24.21,16.33,38.41,6.63,54.63,3.05c16.52-3.64,34.02-.78,48.02,7.84,14.21,8.73,25.18,24.5,29.36,42.18,2.19,9.26.28,17.49-1.73,26.21l-.69,3c-1.87,8.09-3.8,16.45-8.39,23.42-9.17,13.94-23.29,23.5-39.77,26.94-4.41.92-8.91,1.38-13.39,1.38ZM68.87,2.51c-4.69,0-9.4.5-14.03,1.52-15.97,3.52-29.94,13.07-39.35,26.89h0c-3.6,5.29-4.83,11.93-6.02,18.35-.39,2.11-.8,4.29-1.28,6.38-.43,1.88-.95,3.78-1.44,5.62-2.03,7.55-3.95,14.68-1.55,22.09,5.95,18.39,15.98,32.3,29.01,40.23,13.83,8.49,30.96,11.43,47,8.07,16.22-3.38,30.12-12.79,39.14-26.51,4.49-6.83,6.4-15.1,8.25-23.1l.7-3c1.99-8.6,3.87-16.72,1.73-25.76-4.12-17.43-14.93-32.97-28.91-41.56-9.85-6.07-21.48-9.24-33.25-9.24ZM15.08,30.64h0,0Z"/>
            <path class="cls-6" d="M68.09,132.09c-11.6,0-23.19-3.12-32.99-9.04-14.17-8.55-22.04-23.97-28.44-39.35-2.77-6.66.2-13.16,3.08-19.44,1.33-2.92,2.71-5.93,3.54-8.97.85-3.12,1.13-6.63,1.41-10.03.48-5.97.98-12.14,4.48-16.84l.4.3-.4-.3C28.53,15.88,41.92,7.29,56.87,4.26c15.63-3.16,31.91-.48,44.67,7.36,13.21,8.07,24.05,24.22,28.29,42.16,1.84,7.78-.42,14.33-2.82,21.27-.67,1.95-1.37,3.97-1.96,6-.79,2.73-1.4,5.57-1.99,8.32-1.36,6.35-2.77,12.92-6.54,18.32-8.67,12.4-21.93,20.73-37.34,23.44-3.66.65-7.38.97-11.09.97ZM69.83,3.96c-4.24,0-8.52.42-12.76,1.28-14.71,2.98-27.89,11.43-37.11,23.79-3.33,4.47-3.82,10.5-4.29,16.32-.28,3.44-.56,7-1.44,10.21-.85,3.12-2.25,6.17-3.6,9.12-2.91,6.37-5.67,12.38-3.06,18.64,6.33,15.22,14.11,30.47,28.04,38.87,12.74,7.69,28.55,10.58,43.39,7.94,15.15-2.67,28.19-10.85,36.7-23.03,3.66-5.24,4.98-11.42,6.38-17.96.59-2.76,1.2-5.62,2.01-8.39.6-2.06,1.3-4.09,1.98-6.05,2.35-6.79,4.56-13.21,2.79-20.71-4.18-17.69-14.85-33.6-27.84-41.53-9.09-5.58-20.01-8.5-31.19-8.5Z"/>
            <path class="cls-7" d="M68.27,130.2c-11.19,0-22.4-2.97-31.76-8.54-11.96-7.12-18.48-20.11-24.79-32.67-.88-1.75-1.76-3.51-2.66-5.25-3.26-6.33.6-12.14,4.68-18.28,2.2-3.31,4.48-6.74,5.58-10.28,1.09-3.48,1-7.69.91-11.75-.13-6.1-.26-12.4,3.41-16.91h0C32.65,15.47,45.25,8,59.12,5.47c14.75-2.68,29.81-.17,41.33,6.87,12.25,7.43,22.93,23.97,27.22,42.13,1.75,7.41-1.27,13.6-4.2,19.59-1.22,2.5-2.49,5.09-3.41,7.77-1.21,3.49-1.85,7.21-2.47,10.81-1.02,5.94-2.08,12.08-5.74,17.01-8.04,10.85-20.45,17.93-34.92,19.94-2.87.41-5.77.61-8.68.61ZM24.43,27.14c-3.44,4.22-3.31,10.34-3.19,16.26.09,4.15.18,8.43-.96,12.07-1.15,3.68-3.46,7.17-5.7,10.54-3.92,5.89-7.62,11.46-4.63,17.27.9,1.74,1.78,3.5,2.66,5.26,6.24,12.43,12.7,25.29,24.41,32.26,11.6,6.91,26.1,9.75,39.79,7.81,14.2-1.97,26.37-8.92,34.25-19.55,3.52-4.75,4.51-10.5,5.55-16.59.63-3.64,1.27-7.4,2.51-10.96.95-2.73,2.22-5.35,3.46-7.88,2.98-6.1,5.79-11.86,4.12-18.92-4.23-17.92-14.74-34.21-26.77-41.51-11.31-6.92-26.12-9.38-40.63-6.74-13.64,2.49-26.03,9.83-34.88,20.69h0Z"/>
            <path class="cls-11" d="M68.89,128.36c-10.87,0-22.1-2.89-30.97-8.09-9.73-5.7-14.93-15.46-20.43-25.79-1.9-3.56-3.86-7.25-6.01-10.71-3.83-6.16,1.06-11.73,6.24-17.63,3.1-3.54,6.31-7.2,7.67-11.09,1.29-3.69.76-8.42.25-13-.71-6.4-1.45-13.01,2.51-17.46l.37.33-.37-.33c8.46-9.5,20.26-15.86,33.23-17.91,13.62-2.15,27.82.24,37.98,6.39,13.06,7.91,22.55,26.85,26.16,42.11,1.74,7.35-2,13.17-5.62,18.81-1.77,2.76-3.6,5.61-4.81,8.65-1.56,3.91-2.11,8.2-2.63,12.34-.78,6.13-1.51,11.92-5.24,16.66-7.33,9.31-18.87,15.15-32.49,16.45-1.92.19-3.87.28-5.82.28ZM71.31,6.9c-3.25,0-6.53.25-9.77.76-12.74,2.02-24.33,8.27-32.64,17.59h0c-3.66,4.11-2.95,10.5-2.27,16.68.52,4.69,1.06,9.54-.3,13.44-1.42,4.08-4.7,7.81-7.87,11.42-4.92,5.61-9.58,10.91-6.14,16.44,2.17,3.49,4.14,7.19,6.04,10.76,5.44,10.2,10.57,19.83,20.06,25.4,10.3,6.03,23.83,8.9,36.19,7.67,13.35-1.28,24.65-6.98,31.8-16.07,3.56-4.52,4.28-10.18,5.03-16.16.53-4.21,1.08-8.56,2.69-12.59,1.25-3.12,3.1-6.02,4.9-8.81,3.67-5.71,7.13-11.1,5.49-18.04-3.56-15.06-12.89-33.73-25.7-41.49-7.55-4.57-17.38-7.02-27.53-7.02Z"/>
            <path class="cls-8" d="M69.73,126.61c-10.68,0-21.86-2.82-30.4-7.74-8.42-4.85-12.86-13.14-17.56-21.92-2.38-4.45-4.85-9.05-7.88-13.16-4.45-6.03,1.46-11.44,7.72-17.17,4.04-3.7,8.23-7.53,9.83-11.7,1.47-3.83.48-9.03-.48-14.07-1.29-6.77-2.62-13.77,1.69-18.19h0c7.64-7.82,18.94-13.21,30.99-14.79,12.77-1.66,25.72.55,34.63,5.9,12.12,7.29,21.5,26.93,25.09,42.09,1.75,7.41-2.73,12.99-7.06,18.38-2.32,2.89-4.73,5.88-6.2,9.16-1.89,4.21-2.28,8.93-2.66,13.5-.51,6.19-.99,12.03-4.88,16.68-6.5,7.75-17.18,12.35-30.07,12.95-.91.04-1.83.06-2.74.06ZM33.36,23.37c-3.95,4.04-2.66,10.78-1.42,17.3.99,5.17,2.01,10.52.43,14.61-1.69,4.4-5.96,8.3-10.09,12.08-6.18,5.65-11.51,10.53-7.59,15.84,3.07,4.16,5.56,8.8,7.96,13.28,4.63,8.65,9.01,16.82,17.18,21.52,9.12,5.25,21.32,8.06,32.6,7.54,12.6-.59,23.03-5.06,29.35-12.59,3.69-4.4,4.16-10.09,4.65-16.12.38-4.66.78-9.47,2.74-13.83,1.53-3.39,3.97-6.43,6.33-9.38,4.38-5.45,8.51-10.59,6.87-17.53-3.54-14.97-12.75-34.32-24.63-41.46-8.72-5.24-21.42-7.39-33.98-5.77-11.83,1.55-22.91,6.83-30.4,14.49h0ZM33,23.02h0,0Z"/>
            <path class="cls-12" d="M71.18,125.02c-.32,0-.64,0-.96,0-10.2-.16-21.5-3.05-29.49-7.54-7.53-4.24-11.38-11.57-15.45-19.33-2.59-4.93-5.26-10.03-8.99-14.32-1.3-1.5-1.88-3.08-1.71-4.71.42-4.12,5.48-7.98,10.83-12.07,5.02-3.84,10.22-7.81,12.07-12.24,1.64-3.93.17-9.59-1.26-15.06-1.88-7.19-3.82-14.63.91-19,6.71-6.19,17.45-10.55,28.75-11.66,11.77-1.14,23.75.93,31.27,5.42,11.26,6.71,20.34,26.51,24.02,42.07,1.78,7.52-3.45,12.91-8.5,18.12-2.88,2.97-5.87,6.04-7.59,9.51-2.22,4.43-2.42,9.55-2.61,14.49-.25,6.32-.48,12.29-4.6,16.87-5.5,6.11-14.96,9.46-26.7,9.46ZM37.82,21.48h0c-4.29,3.96-2.43,11.1-.62,18.01,1.47,5.63,2.99,11.45,1.22,15.7-1.96,4.68-7.26,8.73-12.39,12.65-5.18,3.96-10.07,7.69-10.45,11.38-.14,1.36.34,2.65,1.47,3.95,3.8,4.37,6.5,9.52,9.12,14.51,4,7.63,7.78,14.83,15.06,18.93,7.86,4.42,18.97,7.26,29.01,7.41,11.87.19,21.44-3.06,26.89-9.12,3.88-4.31,4.1-10.11,4.34-16.24.2-5.05.4-10.28,2.72-14.9,1.79-3.61,4.83-6.74,7.77-9.76,5.09-5.25,9.9-10.2,8.25-17.19-3.63-15.36-12.55-34.88-23.56-41.44-7.35-4.38-19.1-6.4-30.66-5.28-11.08,1.09-21.61,5.35-28.16,11.4Z"/>
            <path class="cls-10" d="M73.59,123.76c-1.8,0-3.67-.09-5.62-.27-8.92-.8-19.06-3.71-25.82-7.41-6.87-3.76-10.23-10.39-13.78-17.42-2.63-5.2-5.35-10.59-9.65-14.82-1.45-1.42-2.1-2.93-1.95-4.49.4-4.05,6.22-7.88,12.39-11.93,6.04-3.97,12.28-8.07,14.39-12.75,1.8-4.03-.17-10.13-2.09-16.03-2.48-7.65-5.04-15.56.18-19.83h0c5.75-4.71,15.66-7.89,26.5-8.52,11-.63,21.7,1.26,27.92,4.93,11.93,7,20.04,29.72,22.95,42.04,1.82,7.68-4.17,12.92-9.96,17.98-3.44,3.01-7,6.12-8.97,9.74-2.52,4.61-2.51,10.08-2.5,15.36.02,6.52.03,12.68-4.38,17.19-3.98,4.07-10.83,6.22-19.62,6.22ZM41.96,19.21l.32.39c-4.69,3.84-2.24,11.42.14,18.75,1.97,6.08,4.01,12.37,2.05,16.75-2.23,4.95-8.6,9.13-14.76,13.17-5.96,3.92-11.59,7.61-11.94,11.19-.12,1.26.42,2.46,1.65,3.68,4.42,4.35,7.18,9.8,9.85,15.08,3.48,6.88,6.76,13.38,13.36,16.99,6.65,3.64,16.64,6.5,25.43,7.29,11.18,1.04,19.86-.97,24.43-5.65,4.13-4.22,4.11-10.18,4.1-16.49-.01-5.41-.03-11.01,2.62-15.84,2.06-3.77,5.68-6.95,9.19-10.01,5.82-5.09,11.32-9.9,9.64-17-3.73-15.78-12.35-35.47-22.48-41.41-6.05-3.58-16.52-5.41-27.35-4.79-10.64.62-20.33,3.72-25.93,8.3l-.32-.39Z"/>
            <path class="cls-9" d="M76.25,123.05c-3.39,0-6.89-.44-9.97-.99-9.13-1.64-17.99-4.89-22.72-7.37-6.36-3.34-9.29-9.43-12.38-15.87-2.57-5.35-5.22-10.88-10.05-14.95-1.59-1.34-2.33-2.77-2.2-4.26.35-3.96,6.6-7.57,13.84-11.76,6.78-3.92,14.46-8.35,16.82-13.29,1.97-4.11-.53-10.69-2.95-17.06-3.09-8.14-6.29-16.56-.5-20.61,10.39-7.26,38.81-6.75,48.81-.94,10.94,6.35,18.9,29.4,21.88,42.02,1.86,7.86-4.88,12.96-11.41,17.9-4,3.03-8.13,6.15-10.34,9.9-2.81,4.76-2.57,10.57-2.33,16.18.29,6.76.56,13.15-4.23,17.56-2.88,2.65-7.48,3.53-12.29,3.53ZM71.16,12.47c-9.58,0-19.28,1.64-24.43,5.24h0c-5.15,3.6-2.23,11.29.86,19.43,2.49,6.56,5.07,13.35,2.92,17.85-2.5,5.21-9.99,9.54-17.23,13.72-6.71,3.88-13.04,7.54-13.35,10.98-.1,1.16.5,2.28,1.85,3.41,4.99,4.2,7.69,9.83,10.31,15.28,3.02,6.29,5.87,12.23,11.94,15.42,10.64,5.59,35.76,12.42,43.83,4.98,4.45-4.1,4.19-10.26,3.91-16.79-.24-5.76-.5-11.72,2.47-16.73,2.32-3.92,6.53-7.11,10.6-10.19,6.55-4.96,12.74-9.65,11.04-16.87-2.94-12.46-10.77-35.2-21.41-41.39-4.82-2.8-14.01-4.34-23.3-4.34ZM46.44,17.3h0,0Z"/>
          </g>
        </g>
      </g>
    </g>
  </g>
</svg>