<?xml version="1.0" encoding="UTF-8"?>
<svg id="Layer_2" data-name="Layer 2" xmlns="http://www.w3.org/2000/svg" viewBox="0 0 46 46">
  <defs>
    <style>
      .cls-1 {
        stroke-miterlimit: 10;
      }

      .cls-1, .cls-2, .cls-3 {
        fill: none;
      }

      .cls-1, .cls-3 {
        stroke: #b5d335;
      }

      .cls-2, .cls-4 {
        stroke-width: 0px;
      }

      .cls-3 {
        stroke-linecap: round;
        stroke-linejoin: round;
      }

      .cls-4 {
        fill: #b5d334;
      }
    </style>
  </defs>
  <g id="Icon_Projects" data-name="Icon Projects">
    <g>
      <g>
        <path class="cls-4" d="M18.13,16.73c-.27-.96-.04-1.77.65-2.46.05-.05.08-.14.08-.2-.02-.32.12-.55.37-.72.16-.11.33-.22.51-.28,1.15-.38,2.3-.75,3.45-1.1.54-.16,1.07-.16,1.52.28.06.06.16.07.25.09.21.06.43.11.64.19.72.27,1.06.6,1.43,1.36.47-.08.93-.18,1.41-.23,1.46-.17,2.9-.13,4.29.39.16.06.31.13.46.21.91.48,1.5,1.18,1.55,2.25.05,1.06.12,2.12.16,3.17.01.26-.03.52-.05.77-.03.27-.14.5-.4.62-.16.08-.2.19-.2.36.03,1.43.06,2.85.06,4.28,0,.57-.04,1.14-.1,1.7-.08.71-.42,1.3-1.04,1.66-.87.49-1.74.96-2.65,1.38-3.56,1.65-7.14,3.28-10.7,4.93-.86.4-1.74.48-2.65.32-.47-.08-.84-.33-1.16-.67-.34-.36-.66-.75-1.01-1.11-.36-.37-.8-.6-1.33-.56-.21.01-.43.03-.64.05-1,.09-1.69-.46-1.79-1.47-.03-.3-.05-.6-.05-.91.01-3.16.03-6.33.05-9.49.01-1.67.65-2.61,2.2-3.24.17-.07.35-.14.52-.2,1.34-.45,2.68-.89,4.02-1.33.04-.01.08-.03.15-.06ZM13.81,18.76s.01.04.02.07c.06,0,.12,0,.19,0,.98.07,1.72.47,2.05,1.46.11.35.27.68.36,1.03.4,1.58.78,3.16,1.16,4.73.17.7.28.76.98.54.06-.02.12-.04.18-.06.68-.27,1.35-.55,2.03-.8.22-.08.29-.17.27-.42-.07-.85.1-1.1.89-1.42.43-.17.86-.34,1.29-.5.13-.05.27-.09.41-.1.3-.03.47.1.54.4.04.19.05.39.08.59.05-.01.11-.02.15-.03,1.49-.52,2.99-1.03,4.48-1.55.39-.13.4-.13.37-.54-.03-.52.12-.94.63-1.15.58-.24,1.15-.47,1.74-.67.5-.17.8.06.83.58,0,.15.02.29.03.51.54-.25,1.03-.49,1.53-.72.24-.11.33-.29.32-.56-.04-1.15-.07-2.29-.12-3.44-.02-.57-.17-1.08-.61-1.49-.43-.4-.94-.65-1.49-.79-1.53-.41-3.06-.36-4.6-.06q-.4.08-.33.52c.07,0,.14,0,.2.02.39.06.54.43.27.7-.42.43-.96.6-1.56.51-.32-.05-.44-.41-.22-.66.12-.14.28-.27.44-.33.27-.1.29-.27.23-.57-2.54.83-5.06,1.65-7.59,2.48.18.3.36.45.68.32.12-.05.26-.05.39-.04.21,0,.41.08.49.31.07.22-.04.38-.2.51-.34.28-.74.42-1.18.44-.24.01-.47-.02-.58-.28-.11-.25.05-.4.2-.56,0-.01,0-.03.01-.05-.07-.08-.15-.15-.2-.24-.11-.2-.24-.2-.44-.13-.78.27-1.57.52-2.35.78-.65.22-1.31.43-1.96.65ZM16.31,22.99s-.03,0-.04,0c0,.03,0,.07,0,.1.08,1.36.15,2.72.23,4.08.08,1.4.17,2.79.25,4.19.05.88.06,1.76.11,2.64.04.79.5,1.25,1.29,1.21.44-.02.91-.11,1.31-.29,3.59-1.62,7.16-3.27,10.74-4.92.81-.37,1.59-.79,2.38-1.19.59-.3,1.01-.76,1.1-1.45.03-.23.07-.46.07-.69-.01-1.68-.03-3.37-.05-5.05,0-.03-.01-.06-.02-.11-.37.15-.71.29-1.05.44-.07.03-.13.14-.15.22-.06.34-.23.62-.53.77-.66.31-1.33.6-2,.87-.29.12-.54-.09-.58-.4-.01-.08-.03-.17-.04-.3-1.65.59-3.28,1.16-4.89,1.74-.08.03-.16.18-.18.28-.06.4-.27.71-.63.87-.61.28-1.23.55-1.86.79-.34.13-.58-.04-.63-.4,0-.07-.03-.13-.05-.2-.55.22-1.07.45-1.61.64-.42.15-.85.31-1.29.39-.61.11-.9-.1-1.05-.69-.12-.47-.22-.95-.33-1.43-.16-.71-.32-1.41-.49-2.12ZM13.78,32.81c0-.27,0-.52,0-.77-.03-1.35-.06-2.71-.09-4.06-.05-1.96-.1-3.92-.14-5.88,0-.19-.07-.26-.24-.3-.5-.13-.94-.37-1.33-.71-.04-.04-.09-.06-.22-.15,0,.45,0,.82,0,1.19,0,3.05-.01,6.09-.02,9.14,0,.19,0,.37.02.56.07.73.44,1.07,1.18,1.04.27,0,.55-.04.84-.07ZM16.35,34.6c-.24-4.29-.47-8.53-.71-12.75-.49.05-1,.1-1.52.15,0,.08,0,.16,0,.24.06,2.71.12,5.41.18,8.12.02.77.03,1.55.06,2.32,0,.09.06.22.12.25.55.22.95.61,1.33,1.05.17.2.35.4.54.62ZM18.68,16.55c2.6-.85,5.19-1.69,7.78-2.53-.25-.65-.82-.9-1.43-1.07-.04-.01-.14.04-.16.08-.1.29-.34.4-.6.49-1.13.39-2.25.78-3.38,1.16-.57.19-1.15.34-1.71,0-.58.54-.78,1.26-.51,1.89ZM15.8,21.14c-.14-.35-.25-.7-.43-1.01-.13-.22-.34-.44-.56-.53-.83-.35-1.66-.3-2.43.17-.38.23-.43.5-.11.82.48.48,1.07.72,1.74.79.61.07,1.2.05,1.8-.24Z"/>
        <path class="cls-2" d="M13.81,18.76c.65-.22,1.31-.43,1.96-.65.78-.26,1.57-.51,2.35-.78.2-.07.33-.06.44.13.05.09.13.16.2.24,0,.02,0,.04-.01.05-.15.16-.3.31-.2.56.11.26.35.29.58.28.44-.03.84-.16,1.18-.44.16-.13.27-.3.2-.51-.07-.23-.27-.3-.49-.31-.13,0-.27,0-.39.04-.32.12-.5-.03-.68-.32,2.53-.83,5.06-1.65,7.59-2.48.06.3.04.47-.23.57-.17.06-.32.19-.44.33-.22.25-.1.61.22.66.6.09,1.14-.07,1.56-.51.27-.28.11-.64-.27-.7-.07-.01-.14-.01-.2-.02q-.07-.44.33-.52c1.54-.3,3.07-.35,4.6.06.55.15,1.06.4,1.49.79.44.41.58.92.61,1.49.04,1.15.07,2.29.12,3.44,0,.26-.08.44-.32.56-.5.23-.99.46-1.53.72-.01-.21-.02-.36-.03-.51-.03-.52-.33-.75-.83-.58-.59.2-1.16.44-1.74.67-.51.21-.66.63-.63,1.15.03.4.02.4-.37.54-1.49.52-2.99,1.03-4.48,1.55-.05.02-.1.02-.15.03-.02-.2-.03-.4-.08-.59-.07-.29-.24-.42-.54-.4-.14.01-.28.05-.41.1-.43.16-.86.33-1.29.5-.79.32-.96.56-.89,1.42.02.24-.05.34-.27.42-.68.25-1.36.53-2.03.8-.06.02-.12.04-.18.06-.7.22-.81.16-.98-.54-.38-1.58-.76-3.16-1.16-4.73-.09-.35-.24-.69-.36-1.03-.33-.99-1.07-1.39-2.05-1.46-.06,0-.12,0-.19,0,0-.02-.01-.04-.02-.07Z"/>
        <path class="cls-2" d="M16.31,22.99c.16.71.32,1.41.49,2.12.11.48.21.95.33,1.43.15.59.44.8,1.05.69.44-.08.87-.24,1.29-.39.53-.19,1.06-.42,1.61-.64.02.08.04.14.05.2.05.35.29.53.63.4.63-.24,1.25-.5,1.86-.79.36-.17.57-.47.63-.87.02-.1.09-.25.18-.28,1.62-.59,3.24-1.16,4.89-1.74.02.13.03.22.04.3.04.32.29.52.58.4.68-.26,1.35-.55,2-.87.3-.14.46-.43.53-.77.01-.08.08-.19.15-.22.34-.16.68-.29,1.05-.44.01.05.02.08.02.11.02,1.68.04,3.37.05,5.05,0,.23-.03.46-.07.69-.1.69-.51,1.14-1.1,1.45-.79.41-1.58.82-2.38,1.19-3.57,1.65-7.15,3.29-10.74,4.92-.4.18-.87.27-1.31.29-.79.04-1.24-.42-1.29-1.21-.05-.88-.06-1.76-.11-2.64-.07-1.4-.17-2.79-.25-4.19-.08-1.36-.15-2.72-.23-4.08,0-.03,0-.07,0-.1.01,0,.03,0,.04,0ZM18.55,33.13s0,0-.01,0c-.04-.75-.07-1.51-.12-2.26-.01-.2-.06-.4-.31-.38-.22.02-.27.2-.25.4.03.47.05.94.08,1.41.02.37.04.75.07,1.12.01.18.08.32.29.31.2,0,.27-.14.26-.33,0-.09,0-.18,0-.27ZM18.34,29.25c0-.2-.01-.42-.28-.43-.23-.01-.3.15-.29.36,0,.31.1.45.3.44.24-.01.28-.17.27-.37Z"/>
        <path class="cls-2" d="M13.78,32.81c-.29.02-.57.06-.84.07-.73.02-1.11-.31-1.18-1.04-.02-.19-.02-.37-.02-.56,0-3.05.01-6.09.02-9.14,0-.37,0-.75,0-1.19.12.09.17.11.22.15.38.35.83.59,1.33.71.17.04.24.11.24.3.04,1.96.09,3.92.14,5.88.03,1.35.06,2.71.09,4.06,0,.25,0,.5,0,.77Z"/>
        <path class="cls-2" d="M16.35,34.6c-.2-.22-.37-.42-.54-.62-.37-.44-.78-.83-1.33-1.05-.07-.03-.12-.16-.12-.25-.03-.77-.04-1.55-.06-2.32-.06-2.71-.12-5.41-.18-8.12,0-.08,0-.16,0-.24.52-.05,1.03-.1,1.52-.15.23,4.22.47,8.46.71,12.75Z"/>
        <path class="cls-2" d="M15.8,21.14c-.59.29-1.19.31-1.8.24-.66-.08-1.25-.31-1.74-.79-.32-.32-.27-.59.11-.82.77-.47,1.6-.52,2.43-.17.23.1.43.32.56.53.18.31.29.66.43,1.01Z"/>
        <path class="cls-4" d="M18.55,33.13c0,.09,0,.18,0,.27,0,.19-.06.32-.26.33-.2,0-.27-.13-.29-.31-.02-.37-.05-.75-.07-1.12-.03-.47-.05-.94-.08-1.41-.01-.2.03-.38.25-.4.25-.02.3.18.31.38.04.75.08,1.51.12,2.26,0,0,0,0,.01,0Z"/>
        <path class="cls-4" d="M18.34,29.25c.01.2-.03.36-.27.37-.2,0-.29-.13-.3-.44,0-.2.06-.37.29-.36.26.01.28.23.28.43Z"/>
      </g>
      <g>
        <path class="cls-3" d="M9.46,19.96s.5-2.94,3.31-2.66"/>
        <path class="cls-3" d="M7.37,20.17s.08-5.19,5.58-5.05"/>
        <path class="cls-3" d="M5.28,20.39s-.34-7.45,7.86-7.45"/>
      </g>
      <circle class="cls-1" cx="23" cy="23" r="21.06"/>
      <circle class="cls-1" cx="23" cy="23" r="22.5"/>
    </g>
  </g>
</svg>