<?xml version="1.0" encoding="UTF-8"?>
<svg id="Layer_2" data-name="Layer 2" xmlns="http://www.w3.org/2000/svg" viewBox="0 0 46 46">
  <defs>
    <style>
      .cls-1 {
        fill: none;
        stroke: #b5d335;
        stroke-miterlimit: 10;
      }

      .cls-2 {
        fill: #b5d335;
        stroke-width: 0px;
      }
    </style>
  </defs>
  <g id="Icon_Services" data-name="Icon Services">
    <g>
      <circle class="cls-1" cx="23" cy="23" r="21.06"/>
      <circle class="cls-1" cx="23" cy="23" r="22.5"/>
      <path class="cls-2" d="M41.1,31.89c-1.93,1.04-3.62.81-5.19-.71-1.26-1.22-2.13-2.7-2.94-4.23-1-1.88-1.96-3.78-2.98-5.65-.38-.7-.89-1.33-1.36-1.98-.14-.19-.32-.35-.49-.5-1.11-.99-2.19-1.03-3.36-.13-1.01.78-1.77,1.78-2.38,2.89-1.01,1.83-1.57,3.84-2.16,5.83-.54,1.81-.94,3.67-1.77,5.39-.22.46-.48.92-.81,1.31-1.04,1.23-2.54,1.63-3.81-.12-.81-1.11-1.39-2.35-1.97-3.58-.98-2.05-1.94-4.12-2.99-6.13-.4-.77-.98-1.48-1.6-2.1-1.09-1.1-2.26-1.09-3.46-.11-.11.09-.23.18-.34.27-.34-.25-.3-.88.05-1.08,1.79-1.02,3.52-.86,5.18.45,1.14.91,2,2.06,2.91,3.18.7.86,1.4,1.73,2.18,2.5.92.91,1.76.85,2.67-.07.89-.91,1.51-2.01,2.06-3.14,1.33-2.72,2.6-5.46,3.93-8.18.59-1.22,1.28-2.4,2.25-3.36.4-.4.88-.77,1.38-1.04,1.22-.66,2.4-.31,3.36.92.86,1.12,1.42,2.39,1.87,3.71.9,2.61,1.72,5.26,2.6,7.88.67,1.98,1.38,3.95,2.6,5.68.32.45.7.86,1.12,1.22.87.75,1.88.99,3,.64.2-.06.37-.1.47.14v.07ZM10.02,23.44s-.04.04-.06.06c1.09,1.58,2.15,3.17,3.27,4.73.32.44.74.83,1.17,1.17.57.45,1.15.46,1.74.04.36-.26.71-.59.98-.94.94-1.23,1.55-2.65,2.17-4.06,1.09-2.46,2.14-4.94,3.28-7.38.65-1.38,1.53-2.62,2.8-3.52,1.37-.96,2.67-.78,3.74.51.82.99,1.39,2.12,1.85,3.3.77,1.97,1.48,3.96,2.22,5.94.03.09.07.17.11.26-.09-.5-.23-.98-.39-1.46-.81-2.36-1.59-4.73-2.44-7.07-.33-.9-.79-1.75-1.44-2.48-.98-1.11-2.11-1.21-3.3-.33-.77.57-1.41,1.25-1.86,2.08-.97,1.78-1.89,3.59-2.8,5.4-.99,1.97-1.92,3.96-2.92,5.92-.44.85-1,1.65-1.76,2.26-.75.6-1.46.66-2.28.16-.87-.53-1.47-1.33-2.09-2.12-.66-.83-1.31-1.66-1.97-2.49ZM10.46,24.81l-.05.03s.04.1.07.15c.7,1.22,1.38,2.44,2.11,3.64.42.68.88,1.34,1.39,1.96.94,1.13,2,1.15,2.96.03.45-.53.87-1.12,1.15-1.75.69-1.53,1.32-3.1,1.94-4.66.81-2.05,1.51-4.14,2.6-6.06.7-1.24,1.55-2.38,2.78-3.15,1.05-.66,2.13-.57,3.06.25.7.61,1.23,1.36,1.61,2.19.97,2.12,1.88,4.28,2.81,6.42.06.13.11.26.17.39-.13-.6-.32-1.16-.54-1.72-.79-2.05-1.56-4.11-2.4-6.15-.36-.87-.85-1.69-1.55-2.37-.84-.82-1.73-.94-2.75-.34-.79.47-1.4,1.13-1.93,1.86-1.09,1.51-1.8,3.22-2.56,4.9-1.04,2.32-2.04,4.67-3.13,6.96-.35.74-.89,1.42-1.47,2.02-.9.93-1.81.92-2.82.12-.07-.05-.14-.11-.19-.18-.54-.67-1.1-1.32-1.6-2.02-.59-.81-1.12-1.67-1.67-2.5ZM33.21,25.71s.07-.05.11-.07c-1.09-2.54-2.16-5.09-3.3-7.6-.36-.79-.88-1.54-1.45-2.22-.94-1.13-2.07-1.22-3.26-.36-.18.13-.35.27-.51.42-1.03.94-1.75,2.09-2.35,3.33-.27.55-.51,1.1-.8,1.75.12-.08.14-.09.15-.1.1-.2.2-.39.3-.59.64-1.23,1.43-2.36,2.49-3.27,1.27-1.1,2.59-1.16,3.75-.12.31.28.59.6.84.93.89,1.17,1.53,2.49,2.14,3.82.63,1.36,1.25,2.72,1.88,4.08ZM21.61,22.12s.06.02.09.03c.13-.25.26-.5.4-.75.65-1.16,1.45-2.2,2.51-3.02,1.23-.94,2.52-.93,3.65.11.5.46,1,.98,1.34,1.56,1.06,1.83,2.05,3.7,3.06,5.55.06.11.12.22.22.42,0-.13.01-.17,0-.2-.96-2.04-1.87-4.09-2.89-6.1-.45-.88-1.07-1.68-1.7-2.44-.49-.6-1.19-.92-2.01-.79-.6.09-1.1.42-1.55.82-.98.86-1.71,1.9-2.3,3.05-.29.57-.55,1.17-.82,1.75ZM10.83,26.29s-.03.02-.05.02c.03.06.05.13.08.19.57,1.13,1.13,2.27,1.73,3.38.4.73.86,1.43,1.33,2.13.18.27.43.51.68.73.63.55,1.4.52,2.14-.07.66-.53,1.11-1.24,1.42-2,.59-1.44,1.11-2.91,1.64-4.38.27-.75.5-1.51.75-2.26-.12.12-.18.26-.24.4-.66,1.59-1.3,3.18-2.01,4.75-.35.78-.85,1.5-1.53,2.06-.75.61-1.61.72-2.31.24-.26-.18-.53-.38-.72-.63-.57-.77-1.12-1.55-1.64-2.36-.46-.71-.85-1.46-1.27-2.19ZM11.42,28.36s-.04.01-.06.02c.01.05.02.11.04.16.56,1.2,1.09,2.42,1.71,3.6.38.72.85,1.42,1.37,2.05.69.82,1.47.88,2.45.17.64-.47,1.04-1.14,1.3-1.85.54-1.5,1-3.03,1.5-4.55.06-.19.11-.39.16-.59-.1.07-.13.15-.17.24-.29.81-.56,1.63-.89,2.42-.4.98-.84,1.95-1.63,2.7-.92.87-2.1,1.11-3.11.02-.79-.85-1.35-1.85-1.89-2.85-.27-.5-.52-1.02-.78-1.53Z"/>
    </g>
  </g>
</svg>