<?xml version="1.0" encoding="UTF-8"?>
<svg id="Layer_2" data-name="Layer 2" xmlns="http://www.w3.org/2000/svg" viewBox="0 0 110 110">
  <defs>
    <style>
      .cls-1 {
        fill: none;
        stroke: #b5d335;
        stroke-miterlimit: 10;
      }

      .cls-2 {
        fill: #b5d336;
        stroke-width: 0px;
      }
    </style>
  </defs>
  <g id="Icon_About" data-name="Icon About">
    <g>
      <circle class="cls-1" cx="55" cy="55" r="51"/>
      <circle class="cls-1" cx="55" cy="55" r="54.5"/>
    </g>
  </g>
  <g id="Layer_10" data-name="Layer 10">
    <path class="cls-2" d="M60.34,50.6c7.52,11.06,15.01,22.06,22.58,33.18-.44.02-.71.05-.99.05-4.94,0-9.87,0-14.81.02-.61,0-.96-.19-1.3-.7-4.8-7.09-9.62-14.16-14.43-21.23-.07-.1-.15-.2-.32-.41-.86,1-1.7,1.97-2.54,2.95-5.32,6.24-10.65,12.49-15.96,18.75-.42.49-.84.67-1.46.65-1.26-.04-2.53-.01-4.03-.01,7.33-8.61,14.53-17.06,21.8-25.58-7.24-10.63-14.46-21.24-21.76-31.97.34-.05.57-.1.8-.1,5,0,10,0,15-.02.63,0,.96.26,1.29.75,4.41,6.5,8.84,13,13.26,19.49.21.31.43.62.68.98,2.14-2.51,4.25-4.97,6.35-7.44,3.69-4.33,7.39-8.66,11.06-13.02.48-.57.98-.79,1.71-.76,1.22.05,2.44.01,3.88.01-7.03,8.25-13.89,16.3-20.82,24.44ZM33.77,29.93c4.38,6.33,8.64,12.48,12.89,18.62,7.15,10.33,14.3,20.65,21.47,30.97.22.31.58.73.88.74,2.33.06,4.66.03,7.16.03-.28-.43-.45-.72-.64-.99-4.78-6.9-9.56-13.81-14.34-20.71-6.45-9.31-12.89-18.62-19.35-27.91-.21-.31-.58-.7-.88-.71-2.33-.06-4.66-.03-7.18-.03Z"/>
  </g>
</svg>